<?xml version="1.0" encoding="utf-8"?>
<!-- Generator: Adobe Illustrator 24.0.1, SVG Export Plug-In . SVG Version: 6.00 Build 0)  -->
<svg version="1.1" id="Layer_1" xmlns="http://www.w3.org/2000/svg" xmlns:xlink="http://www.w3.org/1999/xlink" x="0px" y="0px"
	 viewBox="0 0 288 288" style="enable-background:new 0 0 288 288;" xml:space="preserve">
<style type="text/css">
	.st0{fill:#000039;}
</style>
<g>
	<path class="st0" d="M81.9,129.33c12.28,4.73,24.67,4.93,37.29,3.03c5.04-0.76,9.27-2.56,13.42-5.8
		c10.79-8.42,23.06-10.14,36.24-6.35c9.58,2.76,19.25,5.21,28.93,7.63c2.27,0.57,4.73,0.42,7.01,0.59c0.22-0.73,0.48-1.1,0.4-1.39
		c-2.6-10.55-2.61-10.56,7.7-14.24c20.28-7.23,40.96-9.64,62.3-5.72c4.4,0.81,5.82,2.74,5.8,7.03c-0.11,32.85-0.14,65.69,0.02,98.54
		c0.02,5.14-2,6.98-6.91,6.89c-9.09-0.16-18.18-0.2-27.27,0.01c-5.96,0.14-11.6,0.32-11.86-8.53c-6.77,3.06-12.73,5.76-18.69,8.46
		c5.47,17.76,0.3,26-16.99,27.31c-4.05,12.15-8.3,15.25-19.71,15.27c-3.96,4.53-6.7,9.66-10.97,11.98
		c-4.24,2.31-10.02,1.81-15.13,2.54c-0.16-0.57-0.33-1.13-0.49-1.7c-1.16,1.58-2.21,3.27-3.51,4.73c-5.96,6.69-15.09,6.61-21.99-0.4
		c-15.09-15.34-30.07-30.8-45.09-46.21C71.33,221.65,63.56,216,53.08,212c-0.45,9.14-7.19,7.48-13.02,7.5
		c-8.9,0.03-17.81-0.05-26.71,0.03c-4.34,0.04-6.37-1.64-6.36-6.28c0.11-33.22,0.1-66.43,0-99.65c-0.01-4.22,1.77-5.72,5.76-6.47
		c22.52-4.22,44.23-1.28,65.42,6.83c7.55,2.89,7.71,3.27,5.12,10.91C82.84,126.25,82.43,127.64,81.9,129.33z M55.96,203.89
		c13.96,5.62,24.56,15.04,34.53,25.38c14.04,14.55,28.23,28.95,42.31,43.47c2.99,3.08,6.06,5.2,10.05,1.86
		c3.26-2.74,2.78-6.12-1.41-10.48c-6.55-6.82-13.17-13.59-19.77-20.36c-2.33-2.39-5.59-4.91-2.15-8.31c3.34-3.3,5.63,0.19,7.77,2.34
		c8.76,8.82,17.44,17.71,26.2,26.53c4.57,4.6,9.45,5.08,13.14,1.42c3.84-3.8,3.53-8.3-1.13-13.16
		c-6.93-7.24-13.95-14.38-20.94-21.55c-2.14-2.19-4.53-4.5-1.56-7.51c3.11-3.15,5.32-0.39,7.41,1.72
		c8.09,8.18,16.12,16.41,24.21,24.58c4.76,4.81,9.22,5.36,13.13,1.75c4.08-3.76,3.75-8.45-1.15-13.55
		c-6.94-7.23-13.95-14.38-20.95-21.54c-2.2-2.25-4.36-4.66-1.24-7.51c2.85-2.6,5.06-0.38,7.08,1.68
		c7.8,7.94,15.57,15.91,23.41,23.81c4.73,4.77,9.26,5.27,13.14,1.61c3.81-3.59,3.73-8.52-1.01-13.17
		c-4.59-4.51-10.02-8.15-14.63-12.63c-11.31-10.99-22.38-22.22-33.49-33.41c-2.96-2.98-5.74-6.16-8.75-9.41
		c-5.67,4.75-9.49,8.96-9.66,15.92c-0.2,8.39-4.06,15.28-10.68,20.51c-6.43,5.08-13.79,7.73-21.93,8.48
		c-6.57,0.61-8.15-0.57-8.17-6.97c-0.05-12.25,0.02-24.49-0.03-36.74c-0.03-7.84,2.48-14.49,8.55-19.7c2.37-2.04,4.5-4.37,6.39-6.22
		c-12.15-1.39-23.83-2.73-36.04-4.13C71.29,159.63,63.74,181.44,55.96,203.89z M231.73,203.14c-7.5-21.72-14.81-43.01-22.28-64.23
		c-0.36-1.02-2.15-2.21-3.25-2.19c-14.01,0.24-26.87-4.76-39.98-8.58c-11.41-3.32-21.63-1.15-30.58,6.55
		c-4.49,3.87-8.66,8.12-12.99,12.17c-16.9,15.77-14.13,10.64-14.36,33.33c-0.08,7.87-0.01,15.74-0.01,23.72
		c15.9-2.72,22.33-9.07,24.16-23.75c1.03-8.21,5.81-13.81,11.83-18.72c5.63-4.6,6.44-4.55,11.5,0.5
		c14.83,14.81,29.69,29.6,44.45,44.47c4.49,4.52,9.67,6.36,15.63,4.08C221.14,208.48,226.18,205.75,231.73,203.14z M15.47,210.94
		c8.43,0,16.54-0.17,24.64,0.08c3.56,0.11,5.07-1.07,6.22-4.5c6.5-19.46,13.32-38.81,20.03-58.2c3-8.67,6.02-17.34,8.98-25.88
		c-13.96-8.21-49.17-11.44-59.88-6.48C15.47,147.41,15.47,178.87,15.47,210.94z M272.66,115.64c-15.28-4.58-48.57-0.74-59.94,7.03
		c9.8,28.4,19.59,56.88,29.5,85.33c0.4,1.15,1.81,2.76,2.78,2.78c9.16,0.21,18.33,0.13,27.65,0.13
		C272.66,178.65,272.66,147.33,272.66,115.64z"/>
	<path class="st0" d="M163.26,64.03c2.67-1.03,4.27-1.17,5.09-2.04c5.13-5.4,10.1-10.97,15.46-16.87
		c-7.66-14.45-6.5-27.03,4.14-35.65c9.67-7.85,23.72-7.87,33.36-0.06c10.66,8.64,11.87,21.16,3.43,37.22
		c16.2,8.3,21.35,22.23,20.63,39.64c-0.61,14.67,1.68,14.31-14.1,14.23c-15.36-0.07-30.73-0.02-46.84-0.02
		c0,3.55-0.09,6.65,0.02,9.74c0.15,4.11-1.37,6.09-5.81,6.07c-23.18-0.12-46.36-0.11-69.54-0.01c-4.14,0.02-5.68-1.84-5.57-5.73
		c0.09-3.12,0.02-6.24,0.02-10.07c-3.08,0-5.61,0-8.13,0c-15.21,0-30.41-0.11-45.62,0.06c-5.25,0.06-7.43-1.96-7.15-7.27
		c0.34-6.29-0.39-12.68,0.41-18.89c1.63-12.62,8.57-21.84,20.34-27.75c-4.84-7.46-8.53-15.39-4.99-23.99
		c2.1-5.09,5.33-10.37,9.49-13.82c9.66-7.99,23.96-6.84,33.12,1.53c9.92,9.07,10.79,21.4,3.12,34.71
		c5.35,5.92,10.37,11.61,15.59,17.11c0.78,0.82,2.47,0.78,5.04,1.51c-9.43-15.65-8.36-28.64,2.02-37.76
		c9.47-8.33,23.94-8.59,33.72-0.6C171.44,34.25,172.7,46.75,163.26,64.03z M176.23,107.9c0-5.22,0.32-10.03-0.07-14.79
		c-0.85-10.38-5.88-18.27-15.5-22.53c-2.56-1.14-5.89-0.72-8.87-0.7c-4.76,0.02-9.92,1.55-14.17,0.18
		c-6.05-1.96-10.44-0.15-14.85,3.04c-12.19,8.81-11.71,21.56-10.74,34.81C133.35,107.9,154.37,107.9,176.23,107.9z M102.08,91.72
		c3.02-6.57,4.68-12.94,8.44-17.62c3.79-4.71,2.71-7.81-0.37-11.36c-5.75-6.62-11.69-12.02-21.88-8.32
		c-3.78,1.37-8.67-0.45-13.06-0.58c-2.8-0.08-5.93-0.47-8.37,0.58C53.7,60.06,47.32,76.36,52.02,91.72
		C68.95,91.72,85.94,91.72,102.08,91.72z M186.41,91.46c15.63,0,32.88,0,50.12,0c0-5.79,0.46-11.18-0.1-16.45
		c-1.07-10.06-6.85-17-16.02-20.91c-2.11-0.9-4.87-0.34-7.33-0.36c-5.63-0.04-11.26,0.01-16.89-0.05c-1.77-0.02-3.71-0.85-5.27-0.36
		c-7.03,2.2-12.25,6.79-15.54,13.35c-0.59,1.18-0.54,3.18,0.07,4.37C178.81,77.67,182.44,84.14,186.41,91.46z M143.82,62.75
		c9.76,0.07,17.87-7.73,17.96-17.28c0.1-9.68-7.72-17.46-17.62-17.54c-9.92-0.08-17.88,7.54-17.96,17.2
		C126.12,54.71,134.09,62.68,143.82,62.75z M187.01,29.15c-0.09,9.56,7.9,17.67,17.51,17.78c9.54,0.11,17.76-7.94,17.84-17.48
		c0.08-9.56-7.91-17.65-17.54-17.76C195.23,11.58,187.09,19.56,187.01,29.15z M100.97,29.03c-0.14-9.59-8.35-17.53-17.93-17.34
		c-9.65,0.19-17.58,8.32-17.43,17.87c0.15,9.54,8.46,17.57,17.97,17.36C93.24,46.71,101.11,38.61,100.97,29.03z"/>
</g>
</svg>
