<?xml version="1.0" encoding="utf-8"?>
<!-- Generator: Adobe Illustrator 24.0.1, SVG Export Plug-In . SVG Version: 6.00 Build 0)  -->
<svg version="1.1" id="Layer_1" xmlns="http://www.w3.org/2000/svg" xmlns:xlink="http://www.w3.org/1999/xlink" x="0px" y="0px"
	 viewBox="0 0 288 288" style="enable-background:new 0 0 288 288;" xml:space="preserve">
<style type="text/css">
	.st0{fill:#000039;}
</style>
<g>
	<path class="st0" d="M263.19,263.3c-0.69-23.46-7.61-45.03-20.56-64.11c-2.17-3.19-4.05-4.91-5.61-5.11
		c-0.74-0.1-1.46,0.17-2.19,0.81c-2.83,2.49-1.72,4.39,0.47,7.54c0.25,0.35,0.49,0.71,0.73,1.06c6.64,9.97,10.86,18.72,13.69,28.38
		l1.01,3.43l-2.64-2.41c-12.15-11.1-25.8-18.93-42.98-24.64c-1.37-0.46-2.8-1.89-3.26-3.27c-5.76-17.19-13.51-30.75-24.37-42.67
		l-2.2-2.42l3.18,0.77c0.66,0.16,1.18,0.27,1.62,0.35c0.8,0.16,1.37,0.28,1.92,0.56l2.51,1.29c7.54,3.86,15.33,7.86,22.94,11.9
		c3.29,1.75,5.05,1.57,6.5-0.66c0.51-0.79,2.07-3.19-1.86-5.76l-1.14-0.75c-3.14-2.06-6.4-4.19-9.74-5.95
		c-3.87-2.03-7.76-3.86-11.52-5.62c-1.51-0.71-2.97-1.39-4.35-2.06l-0.98-0.47l0.55-0.94c2.18-3.72,4.39-7.41,6.59-11.08
		c4.96-8.27,10.08-16.82,14.63-25.42c5.33-10.07,7.77-20.67,7.27-31.49c-0.97-20.98-11.06-40.18-27.67-52.66
		c-12.17-9.15-26.82-13.94-41.84-13.94c-5.54,0-11.12,0.65-16.64,1.98c-17.37,4.16-32.83,15.54-42.42,31.21
		c-9.44,15.42-12.4,33.14-8.35,49.91c3.68,15.21,11.78,28.34,19.99,40.26c1.69,2.45,3.4,4.84,5.21,7.37
		c0.84,1.17,1.69,2.36,2.55,3.57l0.72,1.01l-3.01,1.28c-1.16,0.49-2.16,0.92-3.17,1.34C54.86,174.1,25.13,217.11,24.8,262.9
		c-0.02,3.39,0.3,5.05,1.18,5.93c0.86,0.87,2.5,1.21,5.82,1.21c74.85,0.01,149.69,0.01,224.54,0c3.25,0,4.92-0.36,5.79-1.25
		C262.96,267.93,263.27,266.29,263.19,263.3z M192.53,202.59l0.61,1.61l-1.7-0.27c-1.93-0.3-3.82-0.59-5.67-0.88
		c-5.7-0.88-11.08-1.7-16.46-2.67c-1.71-0.31-3.01-2.47-3.26-2.9c-1.8-3.18-3.54-6.47-5.38-9.94c-0.71-1.34-1.45-2.73-2.22-4.17
		l-0.32-0.61l13.15-15.19l0.76,0.79C180.56,177.19,186.88,187.75,192.53,202.59z M88.36,111.24c-10.44-23.13-7.05-45.46,9.8-64.58
		c16.38-18.58,37.69-25.01,61.63-18.6c23.68,6.34,38.66,22.22,44.53,47.18c3.02,12.87,0.72,26.13-7.26,41.72
		c-9.93,19.4-23.75,36.11-37.06,51.55c-3.3,3.83-6.64,7.6-10.18,11.58c-1.66,1.86-3.35,3.77-5.09,5.74l-0.76,0.86l-0.75-0.86
		c-2.62-3.02-5.25-6.01-7.88-9C116.98,155.93,99.64,136.21,88.36,111.24z M129.87,182.69l-2.38,4.63
		c-1.94,3.77-3.77,7.33-5.66,10.83c-0.52,0.96-1.66,2.04-2.82,2.24c-5.65,0.95-11.26,1.81-17.2,2.71l-6.84,1.05l0.58-1.59
		c5.1-13.97,11.57-24.86,20.37-34.24l0.76-0.81L129.87,182.69z M76,261.9H33.91l0-1c-0.01-17,23.97-35.54,46.19-42.96l1.51-0.5
		L76,261.9z M40.58,232.27l-2.5,2.28l0.86-3.27c8.22-31.15,39.73-62.63,70.26-70.18l3.23-0.8l-2.25,2.45
		c-10.38,11.28-17.98,24.57-23.92,41.83c-0.48,1.39-1.84,3.15-3.42,3.68C65.91,213.94,52.09,221.79,40.58,232.27z M140.05,253.6
		c0,2.43-0.01,4.87-0.01,7.34v1H84.08l0.13-1.12c0.39-3.24,0.7-6.52,1.01-9.69c0.66-6.91,1.35-14.06,2.82-20.89
		c0.74-3.42,1.2-6.08,1.57-8.21c1.45-8.34,1.73-8.63,9.79-10.18c2.24-0.43,5.02-0.97,8.7-1.86c0.68-0.17,1.36-0.24,2.02-0.3
		c0.66-0.07,1.29-0.13,1.87-0.29c5.04-1.35,9.85-1.95,13.32,5.44c1.91,4.07,6.4,7.86,11.18,9.42c1.74,0.57,3.41,2.56,3.44,4.09
		C140.08,236.71,140.06,244.91,140.05,253.6z M144.13,217.49c-6.42,0-11.86-3.78-14-9.8c-2.31-6.5-0.32-12.4,5.59-16.62l0.65-0.46
		l0.6,0.52c3.69,3.25,5.73,5.04,7.24,5.05c0,0,0.01,0,0.01,0c1.47,0,3.25-1.75,6.47-4.92l0.53-0.52l0.65,0.36
		c5.35,2.96,7.99,8.88,6.58,14.73c-1.6,6.63-7.02,11.31-13.48,11.64C144.7,217.48,144.41,217.49,144.13,217.49z M147.98,261.83
		l0-7.37c0-8.77-0.01-17.84,0.07-26.75c0.01-1.09,1.03-2.73,2.2-3.09c7.49-2.27,12.6-7.47,16.1-16.38l0.31-0.79l0.83,0.18
		c1.99,0.42,3.98,0.84,5.97,1.26c6.74,1.42,13.72,2.9,20.54,4.49c1.5,0.35,2.68,2.25,3,3.43c3.75,13.47,5.79,27.87,6.22,44
		l0.03,1.03H147.98z M212.02,261.96l-5.71-45.13l1.61,0.71c21.55,9.41,39.98,19.15,47.24,43.14l0.39,1.29H212.02z"/>
	<path class="st0" d="M96.25,88.19c0.01,12.77,5.02,24.78,14.1,33.83c9.03,9,20.98,13.96,33.66,13.96c0.03,0,0.07,0,0.1,0
		c26.3-0.06,47.68-21.59,47.65-48.01c-0.01-12.82-4.99-24.83-14.01-33.81c-8.98-8.94-20.93-13.85-33.68-13.85c-0.06,0-0.11,0-0.17,0
		C117.16,40.41,96.23,61.44,96.25,88.19z M144.2,48.07c21.85,0.2,39.64,18.12,39.65,39.94c0.01,10.79-4.16,20.89-11.73,28.45
		c-7.51,7.49-17.5,11.61-28.16,11.61c-0.04,0-0.09,0-0.13,0c-21.85-0.07-39.64-17.98-39.65-39.92c-0.01-10.8,4.22-20.95,11.91-28.57
		C123.66,52.06,133.61,47.98,144.2,48.07z"/>
	<path class="st0" d="M160.91,68.25c-2.64-0.44-5.46-0.66-8.36-0.66c-2.03,0-4.09,0.11-6.14,0.32c-1.22,0.13-3.52,2.53-3.57,3.73
		c-0.39,10.91-0.38,22.04,0.02,33.08c0.13,3.58,2.75,3.58,3.6,3.58c2.71,0,3.28-2.41,3.28-4.44c0-1.25,0.04-2.44,0.08-3.72
		c0.05-1.48,0.1-3.02,0.1-4.92v-1h1c1.06,0,2.06,0.02,3.02,0.04c1.96,0.04,3.65,0.08,5.34-0.07c7.3-0.65,11.88-5.34,12.24-12.55
		C171.89,74.74,167.62,69.35,160.91,68.25z M163.66,82.38c-0.09,0.67-0.46,2.93-1.52,3.61c-2.46,1.6-5.22,1.76-8.36,1.76
		c-0.4,0-0.81,0-1.23-0.01l-2.35-0.01V73.26l2.22,0c4.13-0.03,7.39-0.04,9.74,2.59C164.02,77.91,163.83,81.1,163.66,82.38z"/>
	<path class="st0" d="M131.55,68.71c-0.57-0.57-1.38-0.85-2.46-0.85c0,0,0,0,0,0c-1.14,0-2,0.3-2.63,0.93
		c-0.89,0.89-1.33,2.47-1.32,4.67c0.07,9.82,0.07,19.96,0,30.14c-0.03,4.59,2.15,5.18,3.8,5.22c1.12,0.05,1.98-0.25,2.6-0.84
		c0.83-0.81,1.27-2.27,1.28-4.24c0.01-3.36,0.01-6.72,0.01-10.08l0-5.23l0-14.82C132.83,71.18,132.41,69.57,131.55,68.71z"/>
	<path class="st0" d="M225.1,178.04c-2.82,0-5.12,2.3-5.12,5.12c0,2.82,2.3,5.12,5.12,5.12s5.12-2.3,5.12-5.12
		C230.22,180.33,227.92,178.04,225.1,178.04z"/>
</g>
</svg>
