<svg width="30" height="30" viewBox="0 0 60 60" fill="none" xmlns="http://www.w3.org/2000/svg">
<g clip-path="url(#clip0_556_56)">
<path d="M16.7453 26.8719C19.3686 27.8815 22.0092 27.9246 24.7015 27.5191C25.7802 27.3551 26.6777 26.9754 27.5665 26.2851C29.8705 24.4901 32.4852 24.1191 35.2984 24.9302C37.3436 25.517 39.406 26.0434 41.4684 26.5612C41.9516 26.682 42.478 26.6475 42.9613 26.6906C43.0131 26.5353 43.0648 26.4576 43.0476 26.3972C42.6794 24.8957 43.2259 23.8832 44.6872 23.3597C49.0105 21.815 53.4287 21.2973 57.985 22.143C58.9256 22.3155 59.2276 22.7298 59.219 23.6445C59.1931 30.6515 59.1931 37.6672 59.219 44.6742C59.219 45.7702 58.7962 46.1671 57.7434 46.1412C55.8018 46.1067 53.8602 46.0981 51.9272 46.1412C50.6587 46.1671 49.4506 46.2103 49.3988 44.3204C47.9577 44.9763 46.6805 45.5544 45.412 46.124C46.577 49.9123 45.4724 51.6727 41.7877 51.9488C40.9248 54.5376 40.0187 55.2021 37.5852 55.2107C36.7395 56.1772 36.1527 57.2731 35.2466 57.765C34.3405 58.2569 33.1065 58.1533 32.0192 58.3086C31.9847 58.1878 31.9502 58.067 31.9157 57.9462C31.6654 58.2828 31.4411 58.6452 31.1649 58.9558C29.8964 60.3797 27.9462 60.3711 26.4706 58.8696C23.2518 55.599 20.0503 52.294 16.8488 49.0062C14.4844 46.5813 12.8275 45.3732 10.5925 44.5189C10.4976 46.4692 9.05649 46.1153 7.81387 46.124C5.9154 46.124 4.01694 46.1153 2.10985 46.124C1.19514 46.124 0.763672 45.7702 0.763672 44.7778C0.78956 37.6931 0.78956 30.5997 0.763672 23.515C0.763672 22.6176 1.14336 22.2897 1.99767 22.1343C6.80423 21.2369 11.4382 21.8582 15.96 23.5927C17.5737 24.2054 17.6082 24.2917 17.0559 25.9226C16.9524 26.216 16.8661 26.5094 16.7539 26.8719H16.7453ZM11.2138 42.7844C14.191 43.9839 16.4519 45.9945 18.5833 48.2037C21.5777 51.3102 24.6066 54.3823 27.6096 57.4802C28.2482 58.1361 28.904 58.5934 29.7497 57.8772C30.4487 57.2904 30.3451 56.5741 29.4477 55.6422C28.0497 54.1838 26.6345 52.7427 25.2279 51.293C24.7274 50.7838 24.0371 50.2488 24.7706 49.5153C25.4868 48.8077 25.9701 49.5585 26.4274 50.0158C28.3 51.897 30.1467 53.7955 32.0192 55.6767C32.9944 56.6604 34.0385 56.764 34.8238 55.9787C35.6436 55.1676 35.5745 54.2097 34.5822 53.1742C33.1065 51.6295 31.605 50.1021 30.1122 48.5747C29.6548 48.1087 29.1457 47.6169 29.7756 46.9697C30.4401 46.2966 30.9147 46.8834 31.3548 47.3407C33.0807 49.0839 34.7979 50.8442 36.5238 52.5874C37.542 53.6143 38.4913 53.7264 39.3283 52.9584C40.1999 52.1559 40.1309 51.1549 39.0867 50.0676C37.6024 48.5229 36.1096 46.9955 34.6167 45.4681C34.1507 44.9849 33.6847 44.4758 34.3492 43.8631C34.9532 43.3108 35.4278 43.7854 35.8593 44.2169C37.5248 45.9082 39.1816 47.6082 40.8557 49.2996C41.8654 50.3179 42.8318 50.4214 43.6603 49.6448C44.4714 48.8767 44.4542 47.824 43.4445 46.8316C42.4694 45.8737 41.3044 45.0885 40.3207 44.1392C37.9045 41.792 35.5487 39.3931 33.1756 37.0114C32.5456 36.3728 31.9502 35.6997 31.3116 35.0007C30.1035 36.0104 29.2837 36.9164 29.2492 38.4007C29.2061 40.187 28.3863 41.6626 26.9711 42.7758C25.599 43.8631 24.0285 44.424 22.2939 44.5879C20.8874 44.7174 20.5594 44.4671 20.5508 43.1037C20.5422 40.489 20.5508 37.8743 20.5508 35.2596C20.5508 33.5855 21.0772 32.1703 22.3716 31.0571C22.8807 30.6256 23.3295 30.1251 23.7351 29.7282C21.1376 29.4348 18.6524 29.15 16.0463 28.848C14.493 33.3353 12.8793 37.9865 11.2225 42.7758L11.2138 42.7844ZM48.7257 42.6205C47.1293 37.9865 45.5674 33.4388 43.9709 28.9084C43.8933 28.6927 43.5136 28.4338 43.2806 28.4424C40.2948 28.4942 37.542 27.4241 34.7461 26.613C32.3126 25.9054 30.1294 26.3627 28.2223 28.0109C27.2645 28.8394 26.3756 29.7454 25.4523 30.6084C21.8452 33.9738 22.4406 32.8779 22.3889 37.719C22.3716 39.4017 22.3889 41.0758 22.3889 42.7844C25.7802 42.2062 27.1523 40.8514 27.5492 37.719C27.765 35.9672 28.7919 34.7764 30.0776 33.7236C31.2771 32.7398 31.4497 32.7571 32.5284 33.8271C35.6954 36.9855 38.8623 40.1438 42.0121 43.3194C42.9699 44.2859 44.0745 44.6742 45.3516 44.191C46.4821 43.7595 47.5607 43.1727 48.743 42.6205H48.7257ZM2.57584 44.2859C4.37075 44.2859 6.10525 44.2514 7.83112 44.3032C8.59051 44.3291 8.9098 44.0788 9.16005 43.3453C10.5494 39.1946 11.9991 35.0611 13.4316 30.9277C14.0702 29.081 14.7174 27.2257 15.3473 25.4049C12.3702 23.6531 4.85399 22.9628 2.56721 24.0242V44.2946L2.57584 44.2859ZM57.4586 23.9465C54.1967 22.9714 47.0948 23.7912 44.6699 25.448C46.7582 31.5058 48.8551 37.5895 50.9693 43.656C51.0556 43.8976 51.3577 44.2428 51.5648 44.2514C53.5236 44.2945 55.4739 44.2773 57.4673 44.2773V23.9465H57.4586Z" fill="#2B3990"/>
<path d="M34.1164 12.9354C34.6859 12.7197 35.0225 12.6852 35.2037 12.504C36.2996 11.3476 37.361 10.1654 38.5001 8.90553C36.8605 5.82485 37.1108 3.14111 39.3803 1.29443C41.4427 -0.37967 44.4457 -0.388299 46.4995 1.2858C48.7777 3.13248 49.0366 5.79896 47.233 9.22482C50.6934 10.9938 51.7893 13.971 51.634 17.6816C51.5046 20.8141 51.9964 20.7364 48.6223 20.7191C45.3432 20.7019 42.064 20.7191 38.6295 20.7191C38.6295 21.4785 38.6123 22.1344 38.6295 22.7988C38.6641 23.679 38.3361 24.1019 37.3869 24.0932C32.4423 24.0673 27.489 24.0673 22.5444 24.0932C21.6642 24.0932 21.3277 23.7049 21.3535 22.8679C21.3708 22.2034 21.3535 21.5389 21.3535 20.7191C20.6977 20.7191 20.1541 20.7191 19.619 20.7191C16.3744 20.7191 13.1298 20.6933 9.88511 20.7278C8.76329 20.7364 8.29731 20.3136 8.35771 19.1745C8.42675 17.8283 8.27142 16.4649 8.44401 15.1446C8.78918 12.4522 10.2734 10.4847 12.7846 9.22482C11.7491 7.63701 10.9638 5.93703 11.7232 4.1076C12.1719 3.0203 12.8622 1.89848 13.7511 1.15636C15.8135 -0.552257 18.8683 -0.302005 20.8185 1.48427C22.9327 3.41725 23.1226 6.04921 21.483 8.88827C22.6221 10.1482 23.7007 11.3649 24.8053 12.5385C24.9692 12.7111 25.3317 12.7025 25.884 12.8578C23.8733 9.51822 24.0977 6.74819 26.3154 4.79795C28.3347 3.0203 31.424 2.96853 33.5123 4.66851C35.8423 6.5756 36.1098 9.24208 34.0991 12.9268L34.1164 12.9354ZM36.8778 22.2983C36.8778 21.1851 36.9468 20.1582 36.8605 19.14C36.6793 16.9222 35.6093 15.2395 33.5555 14.3334C33.0118 14.0918 32.2956 14.1781 31.6656 14.1867C30.6474 14.1867 29.5514 14.5146 28.6454 14.2212C27.351 13.807 26.419 14.1867 25.4784 14.8684C22.8809 16.7496 22.9759 19.4679 23.183 22.2983H36.8864H36.8778ZM21.0515 18.8466C21.6987 17.4486 22.0525 16.0852 22.8551 15.0842C23.6662 14.0832 23.4332 13.4187 22.7774 12.6593C21.552 11.2441 20.2835 10.0964 18.1089 10.8817C17.3064 11.1751 16.2622 10.7867 15.3216 10.7608C14.7262 10.7436 14.0531 10.6573 13.5353 10.8817C10.7308 12.0811 9.36735 15.5674 10.3684 18.8379H21.0515V18.8466ZM39.0524 18.7862H49.7442C49.7442 17.5522 49.8391 16.4045 49.7269 15.274C49.5025 13.1253 48.2599 11.6497 46.3097 10.8126C45.8609 10.6228 45.2742 10.7436 44.7478 10.735C43.5483 10.735 42.3402 10.735 41.1407 10.7263C40.761 10.7263 40.3468 10.5451 40.0189 10.6487C38.5174 11.1146 37.4042 12.0984 36.7052 13.4964C36.5757 13.7466 36.593 14.1781 36.7224 14.4283C37.4387 15.8349 38.2153 17.2156 39.061 18.7775L39.0524 18.7862ZM29.9657 12.6593C32.0453 12.6766 33.7798 11.0111 33.7971 8.97457C33.8143 6.91215 32.1489 5.24668 30.0347 5.22942C27.9205 5.21216 26.2205 6.84311 26.2032 8.8969C26.186 10.9421 27.886 12.642 29.9657 12.6593ZM39.1818 5.4883C39.1646 7.53346 40.8645 9.25934 42.9183 9.28522C44.9549 9.31111 46.7066 7.59387 46.7239 5.55734C46.7411 3.52081 45.0325 1.79493 42.9787 1.76904C40.9336 1.74316 39.1991 3.45177 39.1732 5.49693L39.1818 5.4883ZM20.8185 5.46241C20.784 3.41725 19.0409 1.7259 16.9957 1.76041C14.9333 1.80356 13.2419 3.53806 13.2765 5.5746C13.311 7.61113 15.08 9.32837 17.1079 9.27659C19.1703 9.23345 20.853 7.49894 20.8185 5.46241Z" fill="#2B3990"/>
</g>
<defs>
<clipPath id="clip0_556_56">
<rect width="58.4726" height="60" fill="white" transform="translate(0.763672)"/>
</clipPath>
</defs>
</svg>
