<svg width="33" height="33" viewBox="0 0 66 68" fill="none" xmlns="http://www.w3.org/2000/svg">
<g clip-path="url(#clip0_556_69)" filter="url(#filter0_d_556_69)">
<path d="M41.0821 34.1629C43.8797 37.2374 45.6461 40.6365 46.8874 44.3221C46.9733 44.5799 47.2597 44.8568 47.508 44.9427C51.2126 46.1744 54.6117 47.9503 57.7435 50.8148C56.9797 48.2177 55.853 46.1458 54.5354 44.1789C54.0293 43.4246 53.3323 42.6894 54.2967 41.8396C54.9364 41.2762 55.6429 41.6486 56.4927 42.8994C59.6245 47.5111 61.2285 52.6098 61.3909 58.1668C61.4386 59.6754 61.0758 60 59.5385 60C41.8651 60 24.1916 60 6.51817 60C4.92365 60 4.61811 59.6849 4.62766 58.0808C4.70404 47.1865 11.7982 36.9223 22.2438 32.5971C22.5971 32.4538 22.9504 32.3011 23.4278 32.091C22.7881 31.1935 22.177 30.3533 21.5946 29.5035C19.5513 26.534 17.6989 23.4596 16.8396 19.9172C14.7868 11.4672 20.401 2.53978 28.9848 0.477396C39.268 -1.986 49.1312 5.39465 49.6181 15.9548C49.7422 18.6187 49.1025 21.1776 47.8708 23.5073C46.324 26.429 44.5576 29.2361 42.8581 32.1388C43.9847 32.683 45.3215 33.275 46.6105 33.9529C47.508 34.4207 48.3482 34.9936 49.198 35.5474C49.8186 35.958 50.1623 36.5309 49.704 37.2374C49.2171 37.9917 48.5583 37.8485 47.8613 37.4761C45.8657 36.4163 43.8606 35.3946 41.8555 34.3635C41.6932 34.2775 41.5023 34.268 41.0726 34.1629H41.0821ZM32.9949 39.7199C34.2839 38.2686 35.4583 36.9605 36.5946 35.6333C39.86 31.8428 43.0204 27.9854 45.3119 23.5073C46.8778 20.4519 47.8135 17.2629 47.0115 13.816C45.6843 8.18268 42.2852 4.35391 36.6709 2.84531C31.0949 1.35582 26.1585 2.84531 22.3584 7.16104C18.4532 11.5818 17.6035 16.6805 20.086 22.161C23.1222 28.8829 28.1636 34.1343 33.0045 39.7104L32.9949 39.7199ZM31.8301 57.613C31.8301 54.9873 31.8492 52.457 31.8014 49.9268C31.8014 49.669 31.41 49.3921 31.1522 49.182C30.2069 48.3991 28.8415 47.8262 28.3737 46.8332C27.6576 45.3055 26.7505 45.3437 25.4997 45.6779C25.2037 45.7543 24.8791 45.7447 24.5735 45.8211C19.8759 46.9573 21.0312 45.7066 20.0096 50.4233C19.5035 52.753 19.3985 55.1687 19.1121 57.6225H31.8205L31.8301 57.613ZM46.7537 57.5843C46.6582 54.0325 46.2285 50.6047 45.2928 47.2533C45.226 47.0051 44.9777 46.6614 44.7581 46.6136C42.6862 46.1267 40.5952 45.7066 38.5042 45.2578C37.6926 47.3202 36.4991 48.676 34.5513 49.268C34.389 49.3157 34.198 49.6022 34.198 49.774C34.1789 52.3806 34.1789 54.9777 34.1789 57.5939H46.7537V57.5843ZM8.41823 50.6715C11.3972 47.9599 14.7868 46.1935 18.4819 44.9523C18.7588 44.8568 19.0452 44.5226 19.1407 44.2266C20.401 40.5792 22.1292 37.2088 24.8409 34.268C17.8326 36.0057 10.366 43.3195 8.41823 50.6715ZM17.9854 47.683C12.5144 49.5067 7.23428 53.8797 7.24382 57.6034H16.7346C17.1547 54.2712 17.5653 51.0057 17.9854 47.683ZM48.0045 47.578C48.4437 51.0439 48.8638 54.338 49.2744 57.613H59.0325C57.3234 51.9605 52.8072 49.669 48.0045 47.578ZM26.5404 35.9007C24.3158 38.2686 22.8644 40.9325 21.776 43.902C23.6092 43.6155 25.3374 43.3673 27.056 43.0713C27.247 43.0426 27.4571 42.8421 27.5525 42.6607C28.1541 41.5531 28.7174 40.4265 29.3762 39.1566C28.5742 38.2304 27.6003 37.1133 26.5404 35.8911V35.9007ZM44.2425 43.9211C43.0968 40.9134 41.6837 38.2304 39.459 35.9198C38.4087 37.1324 37.4252 38.2686 36.6327 39.1852C37.2916 40.4265 37.8358 41.4768 38.4278 42.5175C38.5615 42.7562 38.8002 43.0426 39.0293 43.0904C40.7098 43.3959 42.3998 43.6346 44.2521 43.9306L44.2425 43.9211ZM31.1808 41.3049C29.8727 42.2406 29.4335 43.5296 29.9491 44.9618C30.4456 46.3558 31.7155 47.1865 33.2241 47.1101C34.6467 47.0337 35.8307 46.0025 36.184 44.5417C36.4895 43.2622 35.9166 41.9733 34.7422 41.324C33.6283 42.4188 32.4411 42.4125 31.1808 41.3049Z" fill="#2B3990"/>
<path d="M52.0244 40.9516C51.7093 40.5028 51.146 40.0541 51.146 39.6053C51.146 39.2234 51.8239 38.4882 52.1199 38.5264C52.5782 38.5837 53.2466 39.1279 53.323 39.548C53.3993 39.9491 52.8265 40.4742 52.54 40.9421C52.3681 40.9421 52.1963 40.9516 52.0244 40.9612V40.9516Z" fill="#2B3990"/>
<path d="M32.9758 5.28006C39.3634 5.26096 44.5098 10.3787 44.5194 16.7664C44.5194 23.1445 39.3825 28.3291 33.0331 28.3386C26.6836 28.3482 21.499 23.1731 21.499 16.8141C21.499 10.4074 26.5786 5.2896 32.9853 5.27051L32.9758 5.28006ZM42.1706 16.7759C42.1706 11.7154 38.1031 7.62888 33.0426 7.58114C27.9917 7.5334 23.8288 11.7059 23.8288 16.8046C23.8288 21.865 27.9153 25.9802 32.9567 25.9898C38.0649 26.0089 42.1706 21.8937 42.1706 16.7664V16.7759Z" fill="#2B3990"/>
<path d="M34.6374 18.4851C34.6374 19.3348 34.7711 20.0318 34.5897 20.6334C34.456 21.0821 33.9308 21.4163 33.5776 21.8078C33.1956 21.4545 32.5082 21.1012 32.4891 20.7384C32.3936 18.1318 32.3936 15.5156 32.4891 12.909C32.5082 12.508 33.1384 11.8396 33.5394 11.8014C34.6851 11.6773 35.8882 11.6964 37.0244 11.8778C38.7813 12.1642 39.8125 13.5774 39.7265 15.2865C39.631 17.1006 38.4757 18.3036 36.6234 18.4755C36.0123 18.5328 35.3917 18.4755 34.6279 18.4755L34.6374 18.4851ZM34.7042 13.5296V16.7664C35.6304 16.4322 36.4706 16.2604 37.139 15.8307C37.3681 15.6779 37.3681 14.5704 37.139 14.4367C36.4611 14.0166 35.6209 13.8543 34.6947 13.5296H34.7042Z" fill="#2B3990"/>
<path d="M30.5984 16.881C30.5984 18.084 30.5984 19.2871 30.5984 20.4997C30.5984 21.2826 30.3215 21.9605 29.4431 21.9319C28.5933 21.9128 28.3164 21.2731 28.3164 20.4615C28.3355 18.0936 28.3355 15.7161 28.3164 13.3482C28.3164 12.5079 28.5742 11.7823 29.4813 11.7823C30.4265 11.7823 30.5984 12.5748 30.5984 13.3768C30.5984 14.5417 30.5984 15.7065 30.5984 16.8714V16.881Z" fill="#2B3990"/>
</g>
<defs>
<filter id="filter0_d_556_69" x="0.618164" y="0" width="64.7632" height="68" filterUnits="userSpaceOnUse" color-interpolation-filters="sRGB">
<feFlood flood-opacity="0" result="BackgroundImageFix"/>
<feColorMatrix in="SourceAlpha" type="matrix" values="0 0 0 0 0 0 0 0 0 0 0 0 0 0 0 0 0 0 127 0" result="hardAlpha"/>
<feOffset dy="4"/>
<feGaussianBlur stdDeviation="2"/>
<feComposite in2="hardAlpha" operator="out"/>
<feColorMatrix type="matrix" values="0 0 0 0 0 0 0 0 0 0 0 0 0 0 0 0 0 0 0.25 0"/>
<feBlend mode="normal" in2="BackgroundImageFix" result="effect1_dropShadow_556_69"/>
<feBlend mode="normal" in="SourceGraphic" in2="effect1_dropShadow_556_69" result="shape"/>
</filter>
<clipPath id="clip0_556_69">
<rect width="56.7632" height="60" fill="white" transform="translate(4.61816)"/>
</clipPath>
</defs>
</svg>
