<?xml version="1.0" encoding="utf-8"?>
<!-- Generator: Adobe Illustrator 24.0.1, SVG Export Plug-In . SVG Version: 6.00 Build 0)  -->
<svg version="1.1" id="Layer_1" xmlns="http://www.w3.org/2000/svg" xmlns:xlink="http://www.w3.org/1999/xlink" x="0px" y="0px"
	 viewBox="0 0 288 288" style="enable-background:new 0 0 288 288;" xml:space="preserve">
<style type="text/css">
	.st0{fill:#000039;}
</style>
<g>
	<path class="st0" d="M144.31,210.99c-36.74-0.03-67.05-30.5-66.9-67.27c0.15-36.53,30.44-66.67,67-66.65
		c36.76,0.02,67.05,30.48,66.91,67.26C211.18,180.86,180.85,211.02,144.31,210.99z M113.72,195.14c2.62-2.15,4.33-4.58,6.56-5.22
		c9.26-2.65,16.77-8,24.57-13.4c6.73-4.66,15.34-2.99,23.25-2.25c5.7,0.54,10.12,3.5,13.61,7.95c1.13,1.44,2.22,2.91,3.97,5.21
		c4.42-6.11,8.46-11.72,12.8-17.73c-13.47-2.86-14.7-4.03-16.21-16.89c-11.48-2.56-25-2.48-28.59-16.99
		c-2.28-9.21,0.13-18.49,6.41-26.2c6.62-8.13,16.16-7.34,25.46-7.25c0.09-0.62,0.19-1.24,0.28-1.86
		c-7.07-4.34-14.14-8.69-21.77-13.37c-4.82,9.77-10.64,15.29-21.72,14.63c-9.79-0.58-17.84-2.62-23.01-11.67
		c-3.14,1.88-5.78,3.38-8.33,5.01c-1.22,0.78-2.29,1.79-3.1,2.44c2.58,2.43,5.88,4.27,7.19,7.04c2.23,4.76,5.3,6.18,10.3,6.22
		c8.77,0.07,13.97,5.65,14.21,14.45c0.11,4.06,0.14,8.13-0.13,12.18c-0.81,12.26-9.05,21.01-21.09,22.99
		c-1.38,0.23-3.54,1.98-3.58,3.09c-0.36,9.6-4.56,16.69-14.02,21.27C105.54,188.6,109.59,191.84,113.72,195.14z M85.2,145.23
		c-0.21,8.69,2.16,17.94,6.84,26.53c1.19,2.19,3.9,5.77,4.85,5.46c2.96-0.96,5.87-3.1,7.89-5.54c1.44-1.73,1.82-4.65,1.98-7.08
		c0.49-7.46,3.2-10.7,10.58-11.61c5.65-0.7,9.37-3.56,12.2-8.6c3.32-5.91,2.56-12.08,2.6-18.26c0.03-5.53-2.03-7.58-7.67-7.59
		c-7.06-0.02-12.29-2.59-15.41-9.28c-2.27-4.86-8.64-5.27-11.91-0.96C89.12,118.87,85.07,130.79,85.2,145.23z M203.87,143.82
		c0.27-0.11,0.55-0.22,0.82-0.33c-1.94-7.62-3.62-15.32-5.88-22.84c-2.36-7.84-6.94-12.95-16.2-10.83
		c-1.12,0.26-2.36,0.07-3.54,0.03c-10.12-0.36-15.23,3.6-17.99,15.37c-0.94,4-0.59,10.57,1.9,12.6c4.39,3.56,10.74,5.49,16.53,6.33
		c8.21,1.19,10.32,2.43,10.57,10.84c0.12,3.78,1.45,5.98,5.55,6.35c3.94,0.35,6.42-0.45,6.73-4.99
		C202.63,152.17,203.35,148,203.87,143.82z M179.09,192.11c-5.58-9.27-7.85-10.56-17.85-10.56c-2.03,0-4.05,0.03-6.08,0
		c-5.46-0.09-9.85,2.05-13.04,6.45c-2.76,3.81-6.33,5.59-11.07,6.11c-3.15,0.34-6.14,2.15-9.21,3.31c0.19,0.59,0.38,1.18,0.56,1.77
		C142.27,206.23,161.08,204.34,179.09,192.11z M126.87,87.53c5.24,8.13,13.06,6.45,20.25,6.56c5.11,0.08,6.28-4.24,8.68-8.17
		C145.82,84.27,136.51,84.34,126.87,87.53z"/>
	<path class="st0" d="M141.95,55.91c7.54-5.65,14.92-11.19,22.7-17.02c-7.75-5.81-15.12-11.34-23.17-17.38
		c0.26,6.73-2.73,8.55-8.51,9.18c-31.51,3.44-57.44,17.53-77.57,42.12c-1.66,2.03-3.51,4.3-6.26,2.02c-3.16-2.62-1-5.12,0.83-7.41
		c19.97-24.87,49.53-40.77,82.96-44.5c0.32-0.91,0.67-1.98,1.07-3.04c2.09-5.59,7.82-8.07,12.07-4.15
		c7.06,6.51,15.6,7.69,24.33,9.67c34.98,7.91,61.48,27.69,79.61,58.6c4.42,7.54,0.83,13.26-8.06,13.33
		c-5.08,0.04-10.16-0.21-15.22,0.07c-4.73,0.26-7.85-1.6-10.64-5.37c-14.4-19.49-33.5-31.58-57.56-35.31
		c-2.29-0.36-4.88,1.05-7.29,1.79c-0.76,0.23-1.39,0.94-2.07,1.45c-8.08,5.95-11.62,5.18-16.45-4.01
		c-30.24,4.88-53.23,20.39-67.16,47.88c-4.1,8.1-8.8,11.65-17.58,10.53c-3.5-0.45-7.12,0.12-10.64-0.2
		c-6.27-0.56-9.53-5.17-7.4-11.05c2.12-5.85,4.81-11.53,7.76-17.01c0.7-1.29,3.42-1.5,5.21-2.21c0.41,1.89,1.66,4.1,1.08,5.62
		c-2.09,5.47-4.79,10.7-7.69,16.97c6.59,0,12.24,0.18,17.85-0.16c1.09-0.07,2.35-2.03,3.02-3.38
		c13.96-27.78,35.89-45.56,66.17-52.86c2.78-0.67,5.62-1.19,8.47-1.47C139.67,47.82,140.14,48.21,141.95,55.91z M164.07,49.19
		c0.4,0.32,0.51,0.48,0.66,0.52c23.86,5.86,43.36,18.31,57.95,38.25c0.63,0.86,1.83,1.79,2.79,1.82c6.02,0.17,12.04,0.08,18.21,0.08
		c-6.24-22.05-49.2-54.87-72.91-56.15C173.03,41,172.73,41.7,164.07,49.19z"/>
	<path class="st0" d="M146.92,232.03c-7.69,5.77-14.96,11.22-22.82,17.11c7.65,5.77,14.97,11.28,22.96,17.3
		c0.07-7.36,4.48-8.56,10.19-9.28c36.42-4.6,64.42-22.67,84.25-53.49c0.9-1.4,1.64-2.9,3.04-5.41c-7.05,0-13.39-0.47-19.58,0.27
		c-2,0.24-3.72,3.56-5.38,5.63c-1.83,2.28-3.91,4.4-6.74,2.3c-3.04-2.26-0.78-4.6,0.6-7c3.97-6.9,9.52-9.99,17.6-8.82
		c3.81,0.55,7.77,0.04,11.66,0.11c8.09,0.14,11.55,6.01,7.43,13.07c-18.25,31.31-45.09,51-80.44,59.02
		c-4.59,1.04-9.29,1.64-13.94,2.45c-3.57,9.95-8.19,11.65-16.31,4.64c-5.89-5.08-12.78-5.43-19.58-6.95
		c-42.75-9.59-72.21-34.97-88.98-75.24c-3.81-9.14-0.38-13.87,9.6-13.94c3.89-0.03,7.79,0.15,11.67-0.04
		c5.75-0.28,9.22,2.08,11.8,7.44c13.55,28.13,35.79,45.07,66.67,50.28c1.99,0.34,4.31-0.83,6.38-1.57c1.07-0.38,1.92-1.35,2.87-2.06
		c7.68-5.66,11.41-4.77,15.93,4.04c14.11-1.59,26.93-6.75,38.7-14.72c0.98-0.66,1.98-1.3,2.9-2.05c2.34-1.93,5.09-3.88,7.35-0.66
		c2.25,3.21-0.7,5.13-3.06,6.88c-9.17,6.81-19.2,11.94-30.2,15.03c-4.85,1.36-9.84,2.44-14.84,3.06
		C149.93,240.25,148.86,239.27,146.92,232.03z M37.24,181.8c8.08,32.53,53.54,73.06,81.09,72.39c-4.47-7.77,1.41-11.31,6.43-15.13
		c-0.48-0.4-0.69-0.69-0.97-0.78c-0.95-0.32-1.93-0.59-2.9-0.84c-25.31-6.7-44.86-21.2-58.8-43.34c-2.67-4.24-4.65-10.23-8.52-12.04
		C49.17,179.99,43,181.72,37.24,181.8z"/>
	<path class="st0" d="M274.46,143.7c-0.83,14.9-6.6,27-19.62,35.13c-3.51,2.19-6.75,2.22-10.42,0.15
		c-25.07-14.14-26.35-53.62-2.17-69.22c5.11-3.3,9.9-3.25,15.07,0.44C268.78,118.38,273.7,129.93,274.46,143.7z M253.16,170.16
		c1.2-0.5,1.72-0.6,2.09-0.89c15.96-12.69,14.86-41.13-1.92-52.75c-3.32-2.3-5.9-1.51-8.62,0.81c-10.85,9.25-14.3,21-11.35,34.66
		c1.59,7.36,5.31,13.58,12.22,18.49c0.12-1.62,0.23-2.41,0.23-3.2c0.01-11.68,0.03-23.35,0-35.03c-0.01-2.72,0.8-5.17,3.84-4.49
		c1.42,0.32,2.99,2.74,3.34,4.44c0.56,2.73,0.15,5.65,0.15,7.14c3.28,1.28,7.06,1.59,7.89,3.31c1.88,3.92-2.59,4.5-4.83,6.26
		c-1.27,1-2.82,2.56-2.91,3.95C252.96,158.4,253.16,163.97,253.16,170.16z"/>
	<path class="st0" d="M13.54,138.12c1.05-12.38,13.01-20.18,24.63-16.06c1.79,0.63,4.17,0.66,5.96,0.05
		c7.75-2.66,15.71-0.62,20.46,5.61c4.71,6.17,4.89,14.82-0.4,21.1c-4.66,5.54-9.89,10.66-15.28,15.49
		c-4.66,4.17-10.68,4.21-15.28,0.11c-5.41-4.83-10.67-9.93-15.27-15.51C15.96,145.98,15.1,141.76,13.54,138.12z M60.3,138.97
		c-0.06-8.73-7.93-13.03-14.86-8.82c-2.99,1.82-5.26,2.08-8.27,0.11c-4.44-2.9-9.77-2.06-12.84,1.47
		c-3.23,3.72-3.14,9.38,0.56,13.34c4.02,4.31,8.12,8.6,12.6,12.42c1.42,1.21,5.13,1.99,6.11,1.11c5.49-4.94,10.56-10.36,15.53-15.83
		C60.13,141.67,60.11,139.65,60.3,138.97z"/>
</g>
</svg>
