<?xml version="1.0" encoding="utf-8"?>
<!-- Generator: Adobe Illustrator 24.0.1, SVG Export Plug-In . SVG Version: 6.00 Build 0)  -->
<svg version="1.1" id="Layer_1" xmlns="http://www.w3.org/2000/svg" xmlns:xlink="http://www.w3.org/1999/xlink" x="0px" y="0px"
	 viewBox="0 0 288 288" style="enable-background:new 0 0 288 288;" xml:space="preserve">
<style type="text/css">
	.st0{fill:#000039;}
</style>
<g>
	<path class="st0" d="M79.77,251.06c-17.55,3.29-32.17-0.24-44.75-10.87c-9.13-7.71-14.49-17.69-16.77-29.47
		c-4.25-21.95,8.25-51.78,43.04-58.56c-0.32-4.54-0.64-9.14-0.98-14.12c-18.5-2.76-32.65-11.9-40.77-29.05
		c-6.17-13.04-6.32-26.52-1.05-39.9c9.92-25.19,43.51-43.06,74.88-22.77c9.56-4.15,18.45-7.91,27.24-11.91
		c1.64-0.75,3.21-2.23,4.17-3.77c10.98-17.7,26.96-26.72,47.59-25.04c20.85,1.69,35.23,13.31,43.2,32.79c0.82,2,2.41,3.97,4.17,5.24
		c18.8,13.51,29.6,31.52,31.82,54.72c0.45,4.75,1.77,9.61,3.71,13.97c2.6,5.87,2.65,11.21-1.1,16.3c-3.64,4.93-3.17,9.35,0.96,13.53
		c3.55,3.58,7.11,7.17,10.92,10.45c10.8,9.3,9.37,19.81-3.6,25.59c-1.12,0.5-2.22,1.05-4.05,1.92c1.57,1.91,2.77,3.57,4.16,5.05
		c3.59,3.82,4.14,8.15,1.2,12.28c-1.84,2.57-2.15,4.74-1.65,7.72c0.79,4.71-0.89,6.85-6.01,9.9c0.19,5.85,1.24,11.37,0.34,16.56
		c-1.41,8.16-9.78,15.09-17.94,15.81c-1.49,0.13-4.04-1.27-4.46-2.51c-0.42-1.26,0.93-3.42,2.01-4.78c0.66-0.83,2.29-0.85,3.46-1.3
		c8.78-3.38,11.69-10.36,7.94-19.02c-2.24-5.17-1.19-8.54,3.58-11.41c1.05-0.63,2.11-1.26,3.72-2.21
		c-11.97-7.5,0.45-9.58,2.84-13.91c-1.52-1.86-3.01-3.44-4.21-5.21c-4.57-6.7-2.93-12.54,4.35-15.8c1.31-0.59,2.73-0.99,3.95-1.72
		c4.24-2.53,4.64-5.7,1-9.17c-3.78-3.61-7.97-6.81-11.59-10.56c-7.09-7.33-11.1-15-3.52-26.06c1.06-1.54,1.38-4.14,0.98-6.02
		c-1.77-8.39-4.23-16.64-5.86-25.05c-3.08-15.82-10.7-28.71-23.92-39.65c-0.55,18.32-7.11,32.76-21.32,43.11
		c-10.88,7.92-23.24,10.61-36.42,8.73c-14.49-2.06-25.94-9.47-34.16-21.58c-8.11-11.94-10.21-25.18-7.16-40.72
		c-6.88,3.45-12.68,6.35-19.06,9.54c1.39,1.92,2.27,3.19,3.21,4.41c11.6,15.07,14.02,31.57,7.71,49.44
		c-0.18,0.51-0.38,1.01-0.58,1.51c-1.06,2.71-2.55,5.17-5.93,3.95c-3.56-1.29-2.55-4.1-1.67-6.8c1.06-3.24,2.2-6.49,2.76-9.83
		c4.16-24.74-13.06-46.39-38.64-48.75c-22.99-2.12-44.38,17.1-44.64,40.83c-0.19,16.88,7.38,30.02,22.37,38.02
		c15.01,8.01,29.85,6.56,43.99-2.75c0.9-0.59,1.66-1.83,2.56-1.91c2.19-0.19,4.42,0.12,6.64,0.23c-0.54,2.02-0.42,4.81-1.72,5.94
		c-7.1,6.14-15.51,9.71-24.82,11.07c-0.87,0.13-1.74,0.25-3.22,0.47c0.22,4.19,0.23,8.29,0.82,12.3c0.14,0.93,2.23,2.05,3.55,2.24
		c22.47,3.2,39.74,18.88,43.72,39.86c4.19,22.09-5.69,43.07-25.93,54.09c-3.45,1.88-3.53,4.49-4.14,7.43
		c-1.55,7.57-3.04,15.15-4.92,22.64c-0.74,2.96-1.56,7.26-6.09,5.82c-4.48-1.43-2.45-5.03-1.62-8.17
		C76.03,266.87,77.71,259.53,79.77,251.06z M210.25,55.13c-0.09-23.19-19.13-42.06-42.14-41.76c-23.32,0.3-41.68,18.99-41.57,42.34
		c0.11,23.27,18.82,41.79,42.14,41.71C191.81,97.32,210.34,78.48,210.25,55.13z M109.47,202.07c-0.06-23.3-18.72-41.87-42.01-41.83
		c-23.2,0.04-41.72,18.76-41.7,42.14c0.03,23.21,18.93,42.06,42,41.91C91.02,244.12,109.54,225.37,109.47,202.07z"/>
	<path class="st0" d="M98.6,88.1c0,0.18,0.02,0.37-0.01,0.54c-2.37,12.25-8.55,23.68-18.06,30.09c-8.72,5.87-21.15,3.78-31.83,0.41
		c-1.86-0.59-3.59-2.54-4.73-4.28c-3.73-5.76-7.44-11.57-10.64-17.63c-4.3-8.16-2.23-18.17,4.29-24.9c1.61-1.66,2.85-3.95,3.55-6.18
		c2.72-8.68,11.46-13.6,20.46-11.49c1.99,0.47,4.27,0.55,6.25,0.09c9.67-2.27,18.28,2.73,20.92,12.14c0.53,1.9,1.77,3.79,3.16,5.23
		C96.34,76.64,98.63,81.8,98.6,88.1z M42.57,96.23c1.56-1.45,2.94-3.23,4.74-4.22c1.14-0.63,3.53-0.67,4.27,0.09
		c1,1.04,1.42,3.14,1.22,4.67c-0.16,1.22-1.72,2.22-2.5,3.41c-3.35,5.14-0.74,11.98,5.11,13.27c3.3,0.73,5.55,0.19,5.4-4.18
		c-0.26-7.57-0.07-15.16-0.07-22.75c0-7.87,0-15.74,0-23.51c-5.34-1.66-8.85-0.12-11.07,4.08c-2.2,4.17-0.71,7.68,2.62,10.56
		c2.21,1.91,4.47,4.31,1.31,6.5c-1.47,1.02-4.82,0.06-6.95-0.85c-1.58-0.67-2.58-2.71-3.9-4.22C37.91,85.83,37.93,90.26,42.57,96.23
		z M69.09,63.07c0,15.75,0.06,31.27-0.05,46.79c-0.02,3.3,1.74,4.64,4.27,3.61c2.61-1.07,5.39-2.92,6.89-5.21
		c2.44-3.73,0.06-7-2.28-10.26c-0.93-1.3-0.22-3.78-0.25-5.73c1.93,0.09,4.09-0.32,5.72,0.43c1.43,0.66,2.26,2.63,3.43,4.11
		c5.24-6.79,5.1-12.1,0.06-17.28c-0.82,0.96-1.54,2.02-2.47,2.85c-2.4,2.12-4.99,5.12-8.28,1.93c-3.46-3.37,0.16-5.25,2.23-7.37
		c2.97-3.04,3.84-6.58,1.55-10.33C77.58,62.79,74.16,61.36,69.09,63.07z"/>
	<path class="st0" d="M198.71,236.63c8.26,1.13,14.19,1.68,19.97,2.93c1.42,0.31,2.96,2.81,3.23,4.49c0.13,0.81-2.58,3-3.97,2.97
		c-4.83-0.11-9.64-0.99-14.47-1.46c-9.91-0.96-16.83,2.5-21.03,11.58c-2.61,5.64-4,11.85-5.89,17.81c-0.54,1.71-0.47,3.78-1.44,5.13
		c-0.88,1.22-2.99,2.5-4.24,2.24c-1.24-0.26-3.11-2.58-2.93-3.72c2.16-13.57,4.51-27.39,16.57-36.13
		C189.06,239.17,195.17,238.03,198.71,236.63z"/>
	<path class="st0" d="M144.01,43.04c0,6.41,0,12.1,0,18.12c8.56,1.57,19.08-3.44,24.36,9.38c5.41-12.16,15.32-8.32,24.2-9.22
		c0-5.92,0-11.73,0-18.29c-3.28,0-6.75,0.49-9.98-0.18c-1.95-0.4-3.53-2.6-5.28-3.99c1.76-1.38,3.37-3.65,5.3-3.97
		c3.87-0.63,7.91-0.26,11.88-0.16c4.27,0.1,6.8,2.26,6.85,6.66c0.09,7.22,0.13,14.44-0.03,21.66c-0.09,4.02-2.25,6.33-6.5,6.28
		c-2.17-0.03-4.36,0.22-6.49-0.04c-6.17-0.76-11.13,0.62-14.84,6.18c-2.37,3.54-6.76,4.33-9.18,0.75
		c-4.72-6.99-11.13-7.24-18.38-6.98c-9.64,0.34-10.51-0.77-10.51-10.36c0-5.6,0.03-11.19,0-16.79c-0.03-4.9,2.4-7.36,7.26-7.39
		c5.78-0.04,11.59-0.36,17.31,0.17c2.07,0.19,5.38,2.3,5.63,3.92c0.61,3.91-2.89,4.23-5.93,4.23
		C154.65,43.04,149.62,43.04,144.01,43.04z"/>
	<path class="st0" d="M81.54,212.35c4.61,4.01,5.82,7.14-0.22,9.74c-0.84,0.36-0.99,2.78-1.09,4.27c-0.43,6.29-3.62,9.51-9.91,9.7
		c-2.16,0.07-4.66,0.69-6.43-0.15c-3.04-1.44-6.92-3.26-8.08-5.95c-1.56-3.62-0.58-8.19-5.24-10.61c-0.57-0.29,0.85-4.39,1.5-7.49
		c-5.43-4.92-9.34-11.78-8.8-20.56c0.09-1.42,0.09-3.18,0.89-4.14c1.1-1.31,3.18-2.99,4.38-2.68c1.36,0.35,3.4,3.04,3.09,4.14
		c-3.1,11.15,6.89,16.28,10.9,24.07c1.24,2.41,9.6,0.55,11.27-1.9c1.51-2.21,3.2-4.34,5.04-6.28c5.25-5.53,6.55-13.11,3.16-19.42
		c-3.51-6.54-10.91-9.91-18.39-8.07c-3.09,0.76-6.24,1.32-7.11-2.36c-0.98-4.14,2.76-4.99,5.73-5.63
		c10.62-2.28,21.13,2.38,26.44,11.53c5.44,9.38,4.12,20.8-3.45,29.02C84.29,210.62,82.95,211.32,81.54,212.35z M72.01,222.3
		c-3.18,0-6.06,0-8.77,0c-1.18,4.44,0.32,5.87,4.44,5.88C71.94,228.19,73.11,226.49,72.01,222.3z"/>
</g>
</svg>
