<svg width="32" height="30" viewBox="0 0 62 60" fill="none" xmlns="http://www.w3.org/2000/svg">
<g clip-path="url(#clip0_556_77)">
<path d="M31.0697 45.4357C22.5994 45.4357 15.6201 38.4097 15.6574 29.9302C15.6946 21.5065 22.674 14.5644 31.0977 14.5737C39.5679 14.5737 46.5473 21.5997 46.5193 30.0699C46.482 38.4843 39.5027 45.4357 31.079 45.4357H31.0697ZM24.0158 41.7829C24.6215 41.2891 25.0129 40.73 25.5254 40.5809C27.6592 39.9659 29.3924 38.7359 31.1908 37.4966C32.7377 36.425 34.7224 36.807 36.5488 36.9747C37.8627 37.0959 38.8784 37.7854 39.6891 38.8104C39.95 39.1459 40.2016 39.4813 40.6022 40.0125C41.6179 38.6054 42.5498 37.3102 43.5561 35.9311C40.4532 35.2695 40.1736 34.9993 39.8195 32.0361C37.1731 31.449 34.0609 31.4677 33.2315 28.1224C32.7097 25.9979 33.2595 23.864 34.7131 22.0842C36.2413 20.2113 38.4404 20.3976 40.5836 20.4163L40.6488 19.9876C39.0181 18.9906 37.3875 17.9842 35.6356 16.9033C34.5268 19.1583 33.1849 20.4256 30.6318 20.2765C28.3767 20.146 26.5224 19.6708 25.3297 17.5835C24.6029 18.0215 23.9972 18.3663 23.4101 18.739C23.1306 18.916 22.879 19.149 22.6926 19.2981C23.289 19.8572 24.0438 20.2765 24.3513 20.9194C24.8638 22.019 25.572 22.3451 26.7274 22.3545C28.7495 22.3731 29.9515 23.659 29.9981 25.6811C30.0261 26.6129 30.0261 27.554 29.9702 28.4858C29.7838 31.3093 27.8829 33.3313 25.1154 33.7879C24.7985 33.8438 24.2954 34.2445 24.286 34.4961C24.2022 36.7045 23.2331 38.3445 21.0526 39.3975C22.1522 40.2734 23.084 41.0188 24.0345 41.7829H24.0158ZM17.4465 30.2843C17.3999 32.2877 17.9403 34.4215 19.0213 36.397C19.3008 36.9002 19.9158 37.7295 20.1394 37.655C20.8197 37.4313 21.4906 36.9375 21.9565 36.3784C22.2919 35.9777 22.3758 35.3068 22.4131 34.7477C22.5249 33.0238 23.1492 32.2784 24.8545 32.0734C26.159 31.9149 27.0163 31.2534 27.6686 30.0886C28.4327 28.7281 28.2556 27.3024 28.2649 25.8861C28.2649 24.6095 27.799 24.1435 26.4945 24.1342C24.8638 24.1342 23.6617 23.5379 22.9442 22.0004C22.4224 20.8822 20.9501 20.789 20.1953 21.7767C18.341 24.2088 17.4092 26.9577 17.4465 30.2843ZM44.7954 29.9581C44.8607 29.9302 44.9259 29.9115 44.9818 29.8836C44.5345 28.1317 44.1432 26.352 43.6213 24.6188C43.0809 22.811 42.0186 21.6369 39.8847 22.1215C39.6238 22.1774 39.3443 22.1401 39.0647 22.1215C36.7352 22.0376 35.5518 22.9508 34.9181 25.6624C34.7038 26.5849 34.7784 28.1038 35.3561 28.5697C36.3718 29.3897 37.8347 29.837 39.1672 30.0327C41.0588 30.3029 41.5434 30.5918 41.5993 32.5299C41.6272 33.3965 41.9347 33.909 42.8759 33.9929C43.7798 34.0768 44.3575 33.8904 44.4227 32.8468C44.4879 31.8777 44.6557 30.9179 44.7768 29.9581H44.7954ZM39.0834 41.0841C37.7975 38.9502 37.2756 38.652 34.9647 38.652C34.4988 38.652 34.0329 38.652 33.567 38.652C32.309 38.6334 31.3027 39.1272 30.5665 40.1429C29.9329 41.0188 29.1036 41.4288 28.0133 41.55C27.2865 41.6338 26.597 42.0438 25.8888 42.3141C25.9354 42.4538 25.9726 42.5843 26.0192 42.7241C30.5945 44.3454 34.9274 43.9075 39.0834 41.0934V41.0841ZM27.0536 16.9872C28.2556 18.8601 30.0633 18.4688 31.722 18.4967C32.8961 18.5153 33.1663 17.5183 33.7254 16.6144C31.4238 16.2417 29.2806 16.251 27.0629 16.9872H27.0536Z" fill="#2B3990"/>
<path d="M30.5295 9.70023C32.272 8.39568 33.9679 7.11909 35.757 5.77726C33.9679 4.43544 32.272 3.16816 30.4176 1.77043C30.4735 3.31725 29.784 3.73657 28.4608 3.88567C21.2019 4.67771 15.2289 7.92977 10.5885 13.5952C10.2064 14.0612 9.77779 14.583 9.14415 14.0612C8.41733 13.4555 8.91119 12.8777 9.33983 12.3559C13.9337 6.62522 20.7453 2.95384 28.4515 2.09657C28.526 1.89157 28.6099 1.63998 28.6938 1.3977C29.1783 0.111788 30.4922 -0.456623 31.4799 0.437926C33.1106 1.93816 35.0767 2.20839 37.0895 2.66498C45.1497 4.49135 51.2532 9.04796 55.4371 16.1671C56.4527 17.9003 55.6327 19.2235 53.5827 19.2421C52.4086 19.2421 51.2439 19.1955 50.0791 19.2607C48.9888 19.326 48.2713 18.888 47.6284 18.0214C44.3111 13.53 39.9036 10.7439 34.3592 9.8866C33.8281 9.80273 33.2317 10.1289 32.682 10.2966C32.5049 10.3525 32.3651 10.5109 32.2067 10.6321C30.3431 12.0018 29.5324 11.8248 28.4142 9.70955C21.4442 10.8371 16.1514 14.4059 12.9367 20.7423C11.9955 22.606 10.9053 23.426 8.88324 23.1651C8.08187 23.0626 7.24323 23.193 6.43255 23.1185C4.98822 22.988 4.23345 21.9257 4.72731 20.5746C5.21186 19.2235 5.83618 17.9189 6.51641 16.6516C6.67482 16.3534 7.30846 16.3069 7.71846 16.1391C7.81164 16.5771 8.10051 17.0803 7.97005 17.4344C7.48551 18.6923 6.8705 19.9037 6.19959 21.348C7.71846 21.348 9.02301 21.3946 10.3182 21.3107C10.5698 21.2921 10.8587 20.8448 11.0171 20.5373C14.2319 14.1357 19.2824 10.0357 26.2617 8.35841C26.9047 8.2 27.5569 8.08818 28.2092 8.02295C30.017 7.84591 30.1195 7.92977 30.5388 9.70955L30.5295 9.70023ZM35.6265 8.15341C35.7197 8.22795 35.7477 8.26523 35.7756 8.27455C41.2734 9.62569 45.7647 12.4957 49.1286 17.0896C49.2684 17.2853 49.5479 17.4996 49.7716 17.5089C51.16 17.5462 52.5484 17.5275 53.9648 17.5275C52.5298 12.4491 42.6245 4.88272 37.164 4.58453C37.6858 6.26181 37.6206 6.42954 35.6172 8.15341H35.6265Z" fill="#2B3990"/>
<path d="M31.666 50.2811C29.8955 51.6136 28.2182 52.8622 26.4105 54.2227C28.1717 55.5552 29.8583 56.8225 31.7033 58.2109C31.7219 56.515 32.7376 56.2354 34.0515 56.0677C42.4472 55.0054 48.8954 50.8402 53.4706 43.7397C53.6756 43.4135 53.8527 43.0688 54.1695 42.491C52.5481 42.491 51.0852 42.3792 49.6595 42.5563C49.2029 42.6122 48.8022 43.3763 48.4201 43.8515C48.0008 44.3733 47.5163 44.8672 46.864 44.3826C46.1651 43.8608 46.687 43.3204 47.0038 42.7706C47.917 41.1772 49.1936 40.469 51.0572 40.7392C51.9331 40.8697 52.8463 40.7392 53.7408 40.7672C55.6045 40.8044 56.4059 42.1556 55.4554 43.777C51.2529 50.9893 45.0656 55.5272 36.9215 57.3816C35.8592 57.6238 34.7783 57.7636 33.7067 57.95C32.8867 60.2423 31.8151 60.6336 29.9514 59.0216C28.591 57.8475 27.0069 57.7729 25.4414 57.4188C15.5921 55.2104 8.79908 49.3586 4.94134 40.0776C4.06543 37.9717 4.85748 36.8815 7.14976 36.8628C8.04431 36.8628 8.94818 36.9001 9.84272 36.8628C11.1659 36.7976 11.9673 37.3474 12.5636 38.5774C15.6852 45.0629 20.8103 48.9672 27.9294 50.1599C28.386 50.2345 28.9264 49.9643 29.4017 49.7965C29.6439 49.7127 29.8396 49.489 30.0633 49.3213C31.8337 48.0168 32.691 48.2218 33.7346 50.2531C36.9867 49.8897 39.9406 48.697 42.6522 46.8613C42.8758 46.7122 43.1088 46.5631 43.3231 46.3861C43.8635 45.9388 44.4972 45.4915 45.019 46.237C45.5408 46.9731 44.8606 47.4204 44.3108 47.8211C42.1956 49.3865 39.8847 50.5699 37.3501 51.2874C36.2319 51.6043 35.0858 51.8465 33.9303 51.9956C32.3742 52.1913 32.1319 51.9677 31.6846 50.2904L31.666 50.2811ZM6.39498 38.7079C8.25863 46.1997 18.7323 55.5459 25.078 55.3875C24.0437 53.5984 25.4041 52.7784 26.5596 51.9024C26.4478 51.8093 26.4012 51.744 26.336 51.7254C26.1123 51.6509 25.8887 51.5949 25.6651 51.5297C19.8319 49.9829 15.3312 46.647 12.1164 41.5406C11.5014 40.5622 11.0448 39.1831 10.1502 38.7638C9.13454 38.2885 7.71817 38.6892 6.38567 38.7079H6.39498Z" fill="#2B3990"/>
<path d="M61.0648 29.9301C60.8785 33.3592 59.546 36.1547 56.5455 38.0276C55.7348 38.5308 54.9894 38.5401 54.1414 38.0649C48.3641 34.8035 48.0659 25.7089 53.6382 22.1121C54.8123 21.348 55.9212 21.3666 57.1139 22.2146C59.751 24.0969 60.8878 26.7619 61.0648 29.9301ZM56.1541 36.0242C56.4337 35.9124 56.5548 35.8844 56.6387 35.8192C60.3194 32.8933 60.0678 26.3426 56.2007 23.6589C55.4366 23.1278 54.8403 23.3142 54.216 23.8453C51.7187 25.9792 50.9173 28.6814 51.5975 31.831C51.9609 33.5269 52.8182 34.9619 54.4116 36.0894C54.4396 35.7167 54.4675 35.5303 54.4675 35.3533C54.4675 32.6603 54.4675 29.9674 54.4675 27.2837C54.4675 26.6594 54.6539 26.091 55.3528 26.2494C55.6789 26.3239 56.0423 26.883 56.1262 27.2744C56.2566 27.8987 56.1635 28.579 56.1635 28.9237C56.9182 29.2219 57.7942 29.2871 57.9805 29.6878C58.4092 30.5917 57.3841 30.7221 56.8716 31.1321C56.5828 31.3651 56.2194 31.7192 56.2007 32.0453C56.1262 33.3219 56.1728 34.6078 56.1728 36.0335L56.1541 36.0242Z" fill="#2B3990"/>
<path d="M0.934611 28.6442C1.17688 25.7928 3.93508 23.9944 6.60941 24.9449C7.01941 25.094 7.56918 25.094 7.97918 24.9542C9.76828 24.3392 11.604 24.8144 12.6942 26.2494C13.7751 27.6751 13.8217 29.6599 12.601 31.1135C11.5294 32.3901 10.3274 33.5735 9.07873 34.6824C8.00714 35.6422 6.61872 35.6515 5.55645 34.7104C4.30781 33.6015 3.09644 32.4274 2.03416 31.1322C1.47507 30.4519 1.27939 29.4828 0.925293 28.6442H0.934611ZM11.7065 28.8399C11.6972 26.8271 9.8801 25.8394 8.28668 26.8085C7.59714 27.2278 7.07532 27.2837 6.37645 26.8365C5.35145 26.1656 4.12144 26.3612 3.41326 27.1719C2.6678 28.0292 2.68644 29.3337 3.54371 30.2469C4.47553 31.244 5.41667 32.2317 6.451 33.1076C6.77713 33.3872 7.63441 33.5642 7.85805 33.3592C9.12532 32.2224 10.2901 30.9738 11.4362 29.7158C11.6692 29.4642 11.6599 28.9983 11.7065 28.8399Z" fill="#2B3990"/>
</g>
<defs>
<clipPath id="clip0_556_77">
<rect width="60.1305" height="60" fill="white" transform="translate(0.93457)"/>
</clipPath>
</defs>
</svg>
