<svg width="26" height="30" viewBox="0 0 56 60" fill="none" xmlns="http://www.w3.org/2000/svg">
<g clip-path="url(#clip0_556_61)">
<path d="M14.0949 53.176C10.2954 53.8836 7.12777 53.1254 4.40662 50.8255C2.42684 49.1574 1.27267 47.0007 0.775618 44.4481C-0.142663 39.6966 2.56163 33.2434 10.0932 31.7691C10.0258 30.7834 9.95843 29.7893 9.88261 28.7109C5.88093 28.1128 2.81437 26.133 1.06205 22.4262C-0.277457 19.6039 -0.302731 16.689 0.83459 13.791C2.98286 8.34025 10.2533 4.47336 17.0435 8.86258C19.116 7.96115 21.0368 7.15238 22.9407 6.28465C23.2946 6.12458 23.64 5.80445 23.8422 5.46746C26.2179 1.63427 29.6804 -0.320234 34.1455 0.0420233C38.661 0.404281 41.7697 2.92324 43.4968 7.13554C43.6737 7.56519 44.0191 7.99484 44.3982 8.27286C48.4673 11.1962 50.8093 15.0968 51.2811 20.1178C51.3822 21.1456 51.6686 22.1987 52.0814 23.1423C52.6459 24.4144 52.6543 25.5686 51.8455 26.6722C51.0621 27.7421 51.1547 28.6941 52.0562 29.6039C52.8228 30.379 53.5979 31.1541 54.415 31.8617C56.7487 33.8752 56.4454 36.1499 53.64 37.3967C53.3957 37.5062 53.1598 37.6242 52.7638 37.8095C53.1008 38.2223 53.362 38.5846 53.6653 38.9047C54.4403 39.7303 54.5583 40.6654 53.9264 41.5669C53.5305 42.1229 53.4631 42.5947 53.5726 43.2349C53.7411 44.2543 53.3788 44.7177 52.2752 45.3748C52.3173 46.6385 52.5448 47.8348 52.351 48.9552C52.0477 50.7244 50.2364 52.224 48.4673 52.3756C48.1471 52.4009 47.5911 52.0976 47.4985 51.8365C47.4058 51.5669 47.7006 51.0951 47.9365 50.8002C48.0797 50.6233 48.4336 50.6149 48.6863 50.5222C50.5903 49.7893 51.2137 48.2813 50.4049 46.4026C49.9163 45.2821 50.1522 44.5576 51.18 43.9342C51.4075 43.7994 51.6349 43.6646 51.9888 43.454C49.394 41.828 52.0899 41.3815 52.6038 40.4464C52.2752 40.042 51.9551 39.705 51.6939 39.3175C50.7082 37.8685 51.0621 36.6048 52.6375 35.8971C52.9239 35.7707 53.2272 35.6781 53.4968 35.5264C54.415 34.9788 54.4993 34.2964 53.7158 33.5382C52.8986 32.7547 51.9888 32.0639 51.2053 31.2552C49.672 29.6713 48.8043 28.0117 50.4471 25.6107C50.6745 25.2737 50.7419 24.7177 50.6577 24.3049C50.2786 22.4852 49.7394 20.6991 49.3856 18.8794C48.72 15.459 47.0688 12.6621 44.2044 10.2948C44.0865 14.2627 42.6627 17.3883 39.5877 19.6292C37.2373 21.3478 34.5583 21.9291 31.7023 21.5163C28.5684 21.0698 26.0915 19.4691 24.3055 16.8491C22.5532 14.2627 22.0983 11.3984 22.7554 8.03697C21.2642 8.78676 20.009 9.41018 18.6273 10.101C18.9306 10.5138 19.116 10.7918 19.3182 11.053C21.8287 14.3133 22.351 17.8853 20.9862 21.7522C20.9441 21.8617 20.902 21.9713 20.8599 22.0808C20.6324 22.6705 20.3123 23.2012 19.5793 22.9317C18.8043 22.6536 19.0233 22.0471 19.2171 21.4574C19.4445 20.7581 19.6973 20.0504 19.8152 19.3259C20.7166 13.9679 16.9845 9.28381 11.4496 8.76991C6.47065 8.31498 1.84554 12.4683 1.78657 17.6073C1.74445 21.2636 3.38724 24.1027 6.63071 25.8381C9.88261 27.5736 13.0924 27.2535 16.1505 25.24C16.3443 25.1136 16.5128 24.844 16.7065 24.8272C17.1783 24.7851 17.6669 24.8525 18.1471 24.8777C18.0292 25.3158 18.0545 25.9224 17.7765 26.1667C16.2432 27.4978 14.4235 28.2729 12.4016 28.5593C12.2162 28.5846 12.0225 28.6098 11.7023 28.6604C11.7529 29.5702 11.7529 30.4548 11.8792 31.3226C11.9129 31.5248 12.3594 31.7691 12.6459 31.8028C17.5069 32.4936 21.2474 35.8887 22.1067 40.4296C23.0166 45.2063 20.8767 49.7556 16.4959 52.1397C15.7461 52.5441 15.7293 53.1086 15.6029 53.7488C15.2659 55.3832 14.9458 57.026 14.5414 58.652C14.3813 59.2922 14.2044 60.2274 13.2272 59.9072C12.2583 59.5955 12.6964 58.8205 12.8733 58.1381C13.2946 56.5627 13.6568 54.9704 14.1033 53.1423L14.0949 53.176ZM42.3342 10.7665C42.3173 5.74548 38.1977 1.65955 33.2103 1.72694C28.164 1.79434 24.1876 5.83815 24.2129 10.8929C24.2381 15.9308 28.2904 19.9409 33.3367 19.9241C38.3409 19.9072 42.351 15.8297 42.3342 10.775V10.7665ZM20.5229 42.5694C20.506 37.5231 16.4706 33.5045 11.4327 33.513C6.41168 33.5214 2.40157 37.5736 2.40999 42.6368C2.40999 47.6579 6.50435 51.7438 11.5001 51.7101C16.5296 51.6764 20.5397 47.6157 20.5229 42.5694Z" fill="#2B3990"/>
<path d="M18.1726 17.9023C18.1726 17.9023 18.1726 17.9781 18.1726 18.0202C17.6587 20.6739 16.3192 23.1424 14.2636 24.5324C12.3765 25.8045 9.68902 25.3496 7.37225 24.6167C6.96787 24.4903 6.59719 24.0691 6.35288 23.69C5.54412 22.4431 4.74378 21.1878 4.05296 19.8736C3.11783 18.1044 3.57276 15.9393 4.97967 14.4819C5.32508 14.1196 5.59466 13.6226 5.74631 13.1424C6.33603 11.2637 8.22314 10.1937 10.1776 10.6571C10.6073 10.7582 11.1044 10.775 11.534 10.6739C13.6233 10.1853 15.4936 11.2637 16.058 13.3024C16.176 13.7152 16.4371 14.1196 16.7404 14.4313C17.6924 15.4086 18.1894 16.529 18.181 17.8938L18.1726 17.9023ZM6.04117 19.663C6.37815 19.3513 6.67301 18.9638 7.06897 18.7531C7.31328 18.6183 7.83561 18.6099 7.99568 18.77C8.21471 18.9975 8.29896 19.4524 8.25684 19.7809C8.22314 20.0421 7.88616 20.2611 7.71766 20.5223C6.99315 21.6344 7.5576 23.1171 8.82129 23.3951C9.53738 23.5552 10.026 23.4372 9.9923 22.4937C9.93333 20.8509 9.97546 19.2081 9.97546 17.5737C9.97546 15.8719 9.97546 14.1702 9.97546 12.4852C8.82129 12.123 8.06307 12.46 7.58287 13.3698C7.10267 14.2713 7.43123 15.0295 8.14732 15.6529C8.62752 16.0657 9.11615 16.588 8.43375 17.0598C8.11362 17.2788 7.3891 17.0766 6.92575 16.8745C6.58034 16.7312 6.36973 16.2847 6.08329 15.9646C5.03864 17.4221 5.03864 18.3825 6.04959 19.6714L6.04117 19.663ZM11.7867 12.4852C11.7867 15.8972 11.8036 19.2502 11.7783 22.6116C11.7783 23.3277 12.1574 23.6141 12.705 23.3951C13.2695 23.1676 13.8676 22.7633 14.1962 22.2662C14.7269 21.4574 14.213 20.7498 13.7076 20.0421C13.5054 19.7641 13.657 19.2249 13.657 18.8037C14.0782 18.8205 14.5416 18.7363 14.8954 18.8964C15.2071 19.0396 15.384 19.4692 15.6368 19.7894C16.7741 18.3235 16.7404 17.1693 15.6452 16.0488C15.4683 16.2595 15.3082 16.4869 15.106 16.6638C14.5837 17.1272 14.0277 17.7759 13.3116 17.0851C12.5618 16.3521 13.3453 15.9477 13.7918 15.4928C14.4321 14.8357 14.6258 14.0691 14.1288 13.2603C13.6233 12.4347 12.8819 12.123 11.7867 12.4937V12.4852Z" fill="#2B3990"/>
<path d="M39.8406 50.0505C41.6266 50.2949 42.9156 50.4128 44.1624 50.6824C44.4657 50.7498 44.8027 51.289 44.8617 51.6512C44.8869 51.8281 44.3056 52.2999 44.0024 52.2915C42.9577 52.2662 41.9131 52.0724 40.8684 51.9798C38.7201 51.7692 37.229 52.5189 36.3191 54.4819C35.7547 55.7034 35.4514 57.043 35.047 58.3403C34.9291 58.711 34.9459 59.1575 34.7353 59.4524C34.5415 59.7136 34.0866 59.9916 33.817 59.941C33.5474 59.882 33.1431 59.385 33.1852 59.1323C33.6485 56.1921 34.1624 53.2013 36.7741 51.3142C37.7597 50.5981 39.0824 50.3538 39.849 50.0505H39.8406Z" fill="#2B3990"/>
<path d="M28.0043 8.14658V12.0724C29.8577 12.4094 32.1323 11.3311 33.2781 14.1028C34.4491 11.4743 36.5974 12.2999 38.5182 12.1061V8.14658C37.8105 8.14658 37.0607 8.2561 36.3615 8.10445C35.9403 8.02021 35.5949 7.54 35.2157 7.23672C35.5949 6.93343 35.9487 6.44481 36.3615 6.37741C37.1955 6.24262 38.0717 6.31844 38.931 6.34371C39.8577 6.36899 40.4053 6.83234 40.4137 7.78432C40.4306 9.34287 40.439 10.9098 40.4137 12.4684C40.3969 13.3361 39.9251 13.8416 39.0068 13.8248C38.535 13.8248 38.0633 13.8753 37.5999 13.8163C36.2604 13.6478 35.1905 13.9511 34.3901 15.1558C33.8762 15.9225 32.9243 16.091 32.4019 15.3159C31.3826 13.7995 29.9925 13.7489 28.4255 13.8079C26.3362 13.8837 26.1509 13.6394 26.1509 11.567C26.1509 10.3538 26.1509 9.14068 26.1509 7.93596C26.1509 6.87446 26.6732 6.34371 27.7263 6.33529C28.9731 6.33529 30.2368 6.25947 31.4752 6.36898C31.9217 6.41111 32.6378 6.86604 32.6968 7.21987C32.8316 8.06233 32.0734 8.13815 31.4163 8.13815C30.3295 8.13815 29.2343 8.13815 28.0211 8.13815L28.0043 8.14658Z" fill="#2B3990"/>
<path d="M14.4825 44.7936C15.485 45.6613 15.7377 46.3353 14.4319 46.8998C14.255 46.9756 14.2213 47.4979 14.196 47.8265C14.1034 49.1913 13.4125 49.8821 12.0477 49.9242C11.576 49.941 11.0368 50.0758 10.6577 49.8905C10.0006 49.5788 9.15811 49.1828 8.90537 48.6015C8.56839 47.818 8.779 46.8324 7.76805 46.3016C7.64168 46.2342 7.95339 45.3496 8.09661 44.6757C6.91717 43.6057 6.07471 42.123 6.19265 40.2275C6.2095 39.9242 6.2095 39.5367 6.38642 39.3345C6.62231 39.048 7.07724 38.6858 7.3384 38.7532C7.63326 38.829 8.07134 39.4103 8.00394 39.6462C7.32997 42.0556 9.4951 43.1677 10.3628 44.8526C10.6324 45.3749 12.4437 44.9705 12.806 44.4398C13.1345 43.9596 13.4968 43.5046 13.8927 43.0834C15.0301 41.8871 15.3081 40.2443 14.5751 38.8795C13.8169 37.4642 12.2162 36.7313 10.5987 37.1357C9.93318 37.3041 9.25078 37.4221 9.05702 36.6217C8.8464 35.7287 9.65516 35.5434 10.2954 35.4002C12.5953 34.9031 14.87 35.9141 16.0157 37.8939C17.1952 39.9242 16.9087 42.3926 15.2659 44.1786C15.0553 44.4061 14.7689 44.5577 14.4656 44.7768L14.4825 44.7936ZM12.4184 46.9503H10.5229C10.2702 47.9107 10.5903 48.2224 11.4833 48.2224C12.41 48.2224 12.6627 47.8602 12.4184 46.9503Z" fill="#2B3990"/>
</g>
<defs>
<clipPath id="clip0_556_61">
<rect width="55.9646" height="60" fill="white" transform="translate(0.0175781)"/>
</clipPath>
</defs>
</svg>
