<svg width="253" height="60" viewBox="0 0 253 60" fill="none" xmlns="http://www.w3.org/2000/svg">
<path d="M205.585 13.4976C205.021 13.5185 204.459 13.426 203.932 13.2258C203.405 13.0257 202.924 12.7219 202.519 12.3327C202.126 11.9636 201.817 11.517 201.609 11.0216C201.402 10.5263 201.302 9.99321 201.315 9.45694C201.312 8.93993 201.418 8.42802 201.625 7.95369C201.832 7.47936 202.137 7.05296 202.519 6.70154C202.925 6.31318 203.406 6.00992 203.933 5.80979C204.459 5.60966 205.021 5.51676 205.585 5.53661C206.71 5.49485 207.808 5.88427 208.651 6.62416C209.044 6.97272 209.355 7.40222 209.563 7.88262C209.771 8.36302 209.871 8.88272 209.855 9.40536C209.865 9.93969 209.765 10.4704 209.564 10.9659C209.362 11.4614 209.062 11.9116 208.682 12.2897C208.278 12.6931 207.794 13.0088 207.261 13.2167C206.728 13.4247 206.157 13.5203 205.585 13.4976Z" fill="#F05023"/>
<path d="M243.628 13.4976C243.064 13.5177 242.502 13.4249 241.975 13.2248C241.449 13.0247 240.968 12.7213 240.562 12.3327C240.17 11.9634 239.861 11.5166 239.654 11.0212C239.448 10.5259 239.348 9.99293 239.362 9.45695C239.358 8.94021 239.463 8.42842 239.67 7.95407C239.876 7.47971 240.18 7.05318 240.562 6.70154C240.968 6.31379 241.449 6.01092 241.976 5.81083C242.503 5.61074 243.064 5.5175 243.628 5.53661C244.754 5.49463 245.853 5.884 246.699 6.62416C247.09 6.97312 247.401 7.4028 247.608 7.88318C247.815 8.36356 247.914 8.88305 247.898 9.40536C247.908 9.93982 247.81 10.4708 247.608 10.9665C247.406 11.4621 247.106 11.9122 246.725 12.2897C246.321 12.6931 245.837 13.0088 245.304 13.2167C244.771 13.4247 244.2 13.5203 243.628 13.4976Z" fill="#F05023"/>
<path d="M132.323 46.425V7.14429H138.941V46.425H132.323Z" fill="#000039"/>
<path d="M156.282 46.8119C154.357 46.8538 152.446 46.4843 150.677 45.7286C149.181 45.0913 147.896 44.0485 146.97 42.7196C146.099 41.429 145.646 39.9053 145.671 38.3522C145.645 36.8415 146.043 35.3535 146.819 34.0536C147.581 32.7812 148.834 31.7782 150.578 31.0446C152.322 30.3109 154.632 29.9412 157.507 29.9355H165.779V34.3115H157.984C155.743 34.3115 154.222 34.674 153.419 35.399C153.032 35.7398 152.724 36.1601 152.517 36.6307C152.31 37.1013 152.208 37.6109 152.219 38.1244C152.207 38.6742 152.332 39.2184 152.584 39.7083C152.835 40.1982 153.206 40.6185 153.661 40.9314C154.623 41.6421 155.957 41.996 157.663 41.9931C159.204 42.0187 160.723 41.6342 162.063 40.8798C163.364 40.1384 164.372 38.9804 164.922 37.5956L165.987 41.5676C165.351 43.2214 164.139 44.594 162.57 45.4363C160.942 46.3533 158.846 46.8119 156.282 46.8119ZM165.247 46.4422V40.6691L164.926 39.5042V29.4928C164.926 27.5541 164.328 26.0539 163.137 24.9663C161.946 23.8788 160.14 23.35 157.72 23.35C156.142 23.3506 154.574 23.6017 153.077 24.0937C151.646 24.5363 150.308 25.2356 149.131 26.157L146.533 21.3383C148.183 20.1316 150.041 19.2342 152.016 18.6904C154.149 18.084 156.358 17.7801 158.577 17.7876C162.74 17.7876 165.942 18.7763 168.183 20.7537C170.424 22.731 171.544 25.7673 171.544 29.8624V46.425L165.247 46.4422Z" fill="#000039"/>
<path d="M180.132 46.425V18.1616H186.481V25.9464L185.736 23.6681C186.52 21.7963 187.935 20.2526 189.738 19.3008C191.586 18.292 193.845 17.7876 196.516 17.7876V24.0937C196.265 24.055 196.014 24.0292 195.767 24.012C195.52 23.9948 195.286 23.9862 195.074 23.9862C192.51 23.9862 190.482 24.7098 188.989 26.157C187.496 27.6042 186.75 29.8109 186.75 32.7769V46.425H180.132Z" fill="#000039"/>
<path d="M208.894 18.1616H202.276V46.4422H208.894V18.1616Z" fill="#000039"/>
<path d="M213.857 23.6681V18.3723H232.853V23.6681H213.857ZM228.37 46.8119C225.24 46.8119 222.821 46.008 221.111 44.4003C219.402 42.7927 218.549 40.437 218.552 37.3334V19.5931H225.169V37.1185C225.169 38.4654 225.525 39.5071 226.235 40.2436C226.626 40.628 227.094 40.9259 227.609 41.1178C228.124 41.3097 228.674 41.3912 229.223 41.3569C230.534 41.4062 231.819 40.9935 232.853 40.192L234.771 44.9205C233.898 45.5835 232.901 46.0698 231.839 46.3519C230.71 46.6628 229.542 46.8175 228.37 46.8119Z" fill="#000039"/>
<path d="M246.937 18.1616H240.319V46.4422H246.937V18.1616Z" fill="#000039"/>
<path d="M119.707 18.5786L116.935 23.7971C117.492 23.9541 118.03 24.1688 118.542 24.4376C119.818 25.1355 120.893 26.1463 121.665 27.3736L126.732 24.4118C125.704 22.297 124.015 20.5689 121.916 19.4856C121.208 19.1185 120.469 18.815 119.707 18.5786Z" fill="#000039"/>
<path d="M118.529 40.2178C117.307 40.8697 115.94 41.2067 114.553 41.1979C113.008 41.2214 111.483 40.8467 110.127 40.1103C109.629 39.8332 109.166 39.5 108.745 39.1174L105.891 44.4648C106.138 44.6153 106.368 44.7829 106.628 44.9248C109.085 46.2071 111.829 46.8533 114.605 46.8033C117.149 46.8513 119.664 46.2598 121.916 45.0838C123.996 43.9926 125.677 42.2778 126.719 40.1834L121.652 37.2174C120.893 38.4714 119.816 39.506 118.529 40.2178Z" fill="#000039"/>
<path d="M15.9984 46.8119C13.672 46.8245 11.3553 46.512 9.1166 45.8834C7.27048 45.406 5.51001 44.6476 3.89783 43.6352L6.44875 38.6015C7.87369 39.4784 9.41833 40.1472 11.0352 40.5875C12.7868 41.0957 14.6023 41.3548 16.4272 41.3569C18.4887 41.3569 19.9916 41.0833 20.9357 40.5359C21.3592 40.3284 21.7158 40.0075 21.9652 39.6095C22.2147 39.2115 22.3472 38.7522 22.3476 38.2834C22.3621 37.9298 22.2805 37.5787 22.1114 37.2672C21.9422 36.9556 21.6917 36.6949 21.3861 36.5124C20.6144 36.0534 19.7645 35.7387 18.8785 35.5839C17.842 35.3604 16.6957 35.1655 15.4398 34.9993C14.1751 34.8273 12.9105 34.5694 11.6502 34.2857C10.4518 34.0091 9.29954 33.5633 8.22876 32.9617C7.21072 32.3928 6.3495 31.5837 5.72115 30.6061C5.06573 29.6174 4.73803 28.2992 4.73803 26.6514C4.70673 24.9764 5.25386 23.3412 6.2885 22.0175C7.42531 20.6169 8.92141 19.5462 10.6194 18.9182C12.7472 18.1246 15.0079 17.7409 17.2804 17.7877C19.2292 17.7964 21.1711 18.0184 23.0709 18.4496C24.8004 18.8021 26.4644 19.4184 28.0038 20.2766L25.4052 25.3102C24.149 24.5583 22.7786 24.0125 21.3471 23.6939C19.9967 23.4042 18.6187 23.26 17.2371 23.2641C15.2449 23.2641 13.7507 23.5507 12.7546 24.1238C11.7585 24.7041 11.2647 25.4564 11.2647 26.372C11.2432 26.7453 11.3202 27.1176 11.4881 27.4524C11.6559 27.7871 11.9089 28.0725 12.2219 28.2806C12.991 28.7514 13.8388 29.0819 14.7252 29.2563C15.7559 29.4842 16.8906 29.6862 18.1899 29.8925C19.4892 30.0989 20.7062 30.3224 21.9535 30.6319C23.1485 30.9206 24.3034 31.3537 25.3922 31.9215C26.4273 32.4551 27.3026 33.2497 27.9302 34.2255C28.6178 35.3968 28.9501 36.7401 28.8873 38.0943C28.9146 39.7707 28.3474 41.4033 27.2849 42.7067C26.1034 44.0824 24.5741 45.121 22.8543 45.7157C20.6551 46.4914 18.3318 46.8629 15.9984 46.8119Z" fill="url(#paint0_linear_234_56)"/>
<path d="M36.4881 57.0855C35.0552 57.0845 33.6319 56.8522 32.2741 56.3978C31.0133 56.0076 29.8491 55.3588 28.857 54.4935L31.4556 49.6704C32.1387 50.2398 32.9036 50.7049 33.725 51.0503C34.564 51.406 35.4675 51.5874 36.3798 51.5833C37.4328 51.6319 38.4697 51.3141 39.3119 50.6849C40.0597 50.0831 40.7541 49.0586 41.395 47.6114L42.9932 44.0092L43.6341 43.1494L54.3618 18.153H60.763L47.4237 48.7634C46.7111 50.5659 45.7125 52.2435 44.4657 53.7326C43.4831 54.8702 42.2379 55.755 40.8364 56.3118C39.4474 56.8336 37.9732 57.0959 36.4881 57.0855ZM42.3045 47.4481L29.4503 18.1616H36.3279L46.8434 42.5562L42.3045 47.4481Z" fill="url(#paint1_linear_234_56)"/>
<path d="M81.0967 17.7877C83.2103 17.7453 85.3041 18.1989 87.2076 19.1116C88.9974 20.0247 90.4666 21.4544 91.4216 23.2125C92.4697 25.0466 92.9952 27.395 92.9981 30.2579V46.425H86.3285V31.0833C86.3285 28.5786 85.7409 26.7073 84.5658 25.4693C83.3907 24.2313 81.7189 23.6137 79.5506 23.6166C78.1056 23.5889 76.6761 23.9152 75.3885 24.5666C74.181 25.2013 73.2018 26.1927 72.5864 27.4036C71.8801 28.8784 71.5414 30.5002 71.599 32.1321V46.425H64.964V18.1616H71.3175V25.839L70.1958 23.4575C71.157 21.6544 72.6581 20.1916 74.492 19.2707C76.538 18.2469 78.806 17.7377 81.0967 17.7877Z" fill="url(#paint2_linear_234_56)"/>
<path d="M104.57 43.575L107.602 37.8965C107.393 37.6223 107.202 37.3351 107.03 37.0368C106.253 35.5826 105.867 33.954 105.909 32.3084C105.867 30.6764 106.253 29.0617 107.03 27.6229C107.747 26.3269 108.821 25.2607 110.127 24.5494C111.484 23.8163 113.008 23.4432 114.553 23.4661C114.8 23.4661 115.043 23.4661 115.281 23.5048L118.135 18.1616C116.974 17.9189 115.791 17.7964 114.605 17.7962C111.828 17.7457 109.084 18.3934 106.628 19.679C104.373 20.86 102.484 22.6266 101.162 24.7901C99.81 27.0615 99.1231 29.6622 99.1783 32.2998C99.1267 34.9304 99.8102 37.5238 101.153 39.7922C102.044 41.2538 103.203 42.5369 104.57 43.575Z" fill="url(#paint3_linear_234_56)"/>
<defs>
<linearGradient id="paint0_linear_234_56" x1="15.1669" y1="17.865" x2="17.3216" y2="57.5043" gradientUnits="userSpaceOnUse">
<stop stop-color="#00AEEF"/>
<stop offset="1" stop-color="#2B3990"/>
</linearGradient>
<linearGradient id="paint1_linear_234_56" x1="43.7121" y1="16.3433" x2="45.8668" y2="55.9826" gradientUnits="userSpaceOnUse">
<stop stop-color="#00AEEF"/>
<stop offset="1" stop-color="#2B3990"/>
</linearGradient>
<linearGradient id="paint2_linear_234_56" x1="77.6883" y1="14.4949" x2="79.8472" y2="54.1342" gradientUnits="userSpaceOnUse">
<stop stop-color="#00AEEF"/>
<stop offset="1" stop-color="#2B3990"/>
</linearGradient>
<linearGradient id="paint3_linear_234_56" x1="107.961" y1="12.8485" x2="110.12" y2="52.4878" gradientUnits="userSpaceOnUse">
<stop stop-color="#00AEEF"/>
<stop offset="1" stop-color="#2B3990"/>
</linearGradient>
</defs>
</svg>
